{"glyphs":{"0":{"ha":669,"x_min":0,"x_max":602,"o":"m 123 612 l 123 611 q 389 85 123 85 q 482 232 482 85 q 394 606 482 456 q 227 737 317 737 q 123 612 123 737 m 0 418 q 76 705 0 584 q 288 833 159 833 q 501 733 410 833 q 602 435 602 621 q 522 119 602 237 q 298 -3 439 -3 q 73 136 153 -3 q 5 419 5 252 l 0 418 z "},"1":{"ha":350,"x_min":0,"x_max":282,"o":"m 282 833 l 282 3 l 102 3 l 117 68 l 117 669 q 52 682 85 682 q 0 674 26 682 l 7 713 l 13 713 q 106 751 46 713 q 165 793 136 772 q 224 833 193 813 l 282 833 z "},"2":{"ha":629,"x_min":0,"x_max":562,"o":"m 503 116 q 547 143 531 132 l 562 115 l 510 -1 l 3 -1 q 80 121 16 53 q 222 254 119 163 q 374 398 326 347 q 415 537 415 471 l 415 541 q 352 674 414 618 q 216 730 291 730 q 119 693 157 730 q 47 570 81 657 l 0 652 q 121 770 46 723 q 286 826 206 826 q 467 760 387 826 q 554 568 554 688 q 526 446 554 518 q 155 136 309 291 l 155 113 l 500 113 l 500 115 l 503 116 z "},"3":{"ha":658,"x_min":0,"x_max":590,"o":"m 564 644 q 438 497 564 538 q 554 395 518 450 q 590 263 590 342 q 503 72 590 152 q 290 -7 418 -7 q 0 116 112 -7 q 94 186 39 168 q 136 139 115 162 q 176 93 156 116 q 292 46 228 46 q 445 220 445 46 q 406 342 445 295 q 222 408 348 408 l 237 452 q 381 519 338 475 q 420 598 420 558 q 374 692 420 642 q 290 741 329 741 q 249 746 275 741 q 212 751 223 751 q 72 614 139 751 l 7 650 q 66 720 33 688 q 136 779 98 753 q 313 836 226 836 q 478 790 404 836 q 563 647 563 737 l 563 648 l 564 644 z "},"4":{"ha":644,"x_min":0,"x_max":576,"o":"m 471 294 l 576 294 l 576 203 l 471 203 l 471 0 l 295 0 l 323 87 l 318 216 l 0 216 q 138 510 20 307 q 268 736 222 656 q 323 835 315 817 q 471 770 408 819 l 471 291 l 471 294 m 300 696 q 252 607 273 646 q 213 531 231 567 q 139 384 166 444 q 103 292 112 325 l 323 292 l 323 694 l 300 696 z "},"5":{"ha":649,"x_min":0,"x_max":581,"o":"m 120 497 q 300 574 192 574 l 308 574 q 498 494 419 574 q 581 289 581 411 q 501 80 581 162 q 264 -10 411 -10 q 0 83 103 -10 q 68 166 17 123 q 161 79 104 113 q 273 44 218 44 q 435 235 435 44 q 376 393 435 319 q 236 468 318 468 q 58 382 133 468 l 67 819 l 534 819 l 467 699 l 121 699 q 103 513 103 554 q 104 496 103 500 l 120 496 l 120 497 z "},"6":{"ha":637,"x_min":0,"x_max":570,"o":"m 149 469 q 335 571 241 571 q 503 496 435 571 q 570 305 570 421 q 474 71 570 163 q 315 -6 394 -6 q 87 103 178 -6 q 0 376 0 212 q 117 694 0 558 q 402 831 233 831 l 427 831 q 451 830 439 831 l 444 779 q 415 780 428 780 q 224 694 294 780 q 151 473 152 610 l 149 469 m 149 395 q 214 157 149 239 q 371 83 273 83 q 445 104 424 83 q 465 187 465 126 q 391 404 465 326 q 246 469 329 469 q 184 451 213 469 q 149 395 149 429 z "},"7":{"ha":627,"x_min":0,"x_max":559,"o":"m 54 809 l 559 809 l 524 719 q 447 600 484 663 q 376 469 410 538 q 299 218 299 311 q 363 113 299 113 q 416 115 412 113 l 362 -7 q 342 -9 352 -9 q 256 12 298 -9 q 172 168 172 56 q 295 441 172 237 q 372 566 334 504 q 450 690 411 627 q 216 701 329 701 q 49 696 132 701 l 0 667 l 54 806 l 54 809 z "},"8":{"ha":645,"x_min":0,"x_max":577,"o":"m 123 675 q 236 537 123 600 q 355 488 321 488 q 408 508 385 488 q 437 576 437 534 q 344 724 437 669 q 220 767 275 767 q 147 749 168 767 q 121 677 121 728 l 123 675 m 104 255 q 205 110 104 170 q 372 57 290 57 q 471 156 471 57 q 397 291 471 236 q 345 323 389 298 q 218 395 300 349 q 153 365 187 395 q 109 254 109 323 l 109 255 l 104 255 m 550 636 q 504 534 550 576 q 473 511 496 527 q 410 469 450 495 q 523 395 492 424 q 577 282 577 347 q 490 76 577 156 q 285 -6 402 -6 q 94 47 176 -6 q 0 197 0 107 q 46 353 0 294 q 183 416 93 412 q 111 458 140 439 q 67 492 81 477 q 17 610 17 543 q 120 781 17 719 q 298 830 199 830 q 325 829 311 830 q 479 768 410 823 q 550 636 550 710 z "},"9":{"ha":650,"x_min":0,"x_max":583,"o":"m 0 540 q 109 764 0 677 q 268 835 193 835 q 505 718 418 835 q 583 458 583 610 q 463 113 583 235 q 160 -3 348 -1 l 172 41 q 351 103 268 41 q 444 281 444 172 q 431 347 444 307 q 231 269 342 269 l 223 269 q 58 363 125 271 q 1 538 1 444 l 0 540 m 111 631 q 170 445 112 524 q 330 357 235 357 q 392 372 366 357 q 412 389 402 381 q 433 407 422 397 q 178 737 433 737 q 109 638 109 737 l 109 631 l 111 631 z "},"\u0000":{"ha":0,"x_min":0,"x_max":0,"o":""}," ":{"ha":475,"x_min":0,"x_max":0,"o":""},"!":{"ha":294,"x_min":0,"x_max":226,"o":"m 96 961 q 104 962 98 962 q 189 883 130 962 l 189 331 l 144 268 l 64 318 l 46 849 l 0 875 l 96 962 l 96 961 m 226 96 q 197 44 226 85 q 151 -5 169 5 q 142 -6 147 -6 q 120 -3 132 -6 l 43 83 l 123 173 l 146 180 l 226 96 z "},"\"":{"ha":619,"x_min":0,"x_max":551,"o":"m 317 817 q 431 938 351 880 q 551 799 469 897 q 510 730 538 785 q 435 583 482 677 l 385 571 l 391 715 q 363 759 380 733 q 319 819 345 783 l 317 817 m 4 822 q 115 943 33 879 q 169 880 140 915 q 231 803 197 845 q 191 736 220 790 q 115 585 161 682 l 66 574 l 71 718 q 43 759 60 733 q 0 819 26 785 l 0 819 l 4 822 z "},"#":{"ha":770,"x_min":1,"x_max":702,"o":"m 323 593 l 388 593 l 385 747 l 435 827 q 528 747 437 827 l 526 593 l 702 593 l 644 498 l 526 498 l 524 397 l 701 397 l 642 302 l 523 302 l 522 168 l 477 105 l 397 155 l 394 302 l 319 302 l 318 168 l 273 105 l 193 155 l 191 302 l 1 302 q 30 342 12 319 q 73 397 47 366 l 189 397 l 186 498 l 1 498 l 1 500 q 33 544 16 521 q 75 593 52 567 l 184 593 l 182 747 l 231 827 q 325 747 233 827 l 323 593 m 390 498 l 322 498 l 321 397 l 392 397 l 390 498 z "},"$":{"ha":888,"x_min":0,"x_max":821,"o":"m 265 505 q 342 507 334 505 l 397 780 q 381 783 392 781 q 355 793 371 786 q 329 800 342 798 q 309 803 317 803 q 195 777 228 803 q 153 659 153 746 q 195 534 153 576 q 264 503 226 503 l 265 505 m 338 116 q 517 85 402 85 q 684 289 684 85 q 624 405 684 342 q 481 474 557 474 q 402 469 422 474 l 338 119 l 338 116 m 422 542 q 574 598 522 598 q 713 540 630 598 q 821 349 821 463 q 682 93 821 189 q 315 -3 543 -3 l 296 -93 q 206 -126 250 -121 l 237 18 q 123 71 182 40 q 0 138 63 102 q 50 176 20 153 q 119 231 80 200 q 271 142 186 170 l 330 425 q 226 392 282 392 l 214 392 q 76 452 129 398 q 22 578 22 509 q 156 810 22 720 q 368 879 259 879 l 392 879 q 424 878 406 879 l 439 962 q 517 1004 471 986 l 488 870 q 607 826 548 852 q 728 767 666 800 l 614 687 l 589 687 l 463 754 l 422 542 z "},"%":{"ha":809,"x_min":0,"x_max":741,"o":"m 91 683 l 92 682 q 210 448 92 448 q 252 513 252 448 q 212 680 252 613 q 137 739 177 739 q 91 683 91 739 m 0 591 q 45 759 0 688 q 168 833 92 833 q 292 775 239 833 q 351 602 351 710 q 304 417 351 486 q 174 347 256 347 q 43 428 90 347 q 3 592 3 496 l 0 591 m 481 336 l 482 336 q 600 101 482 101 q 642 167 642 101 q 602 334 642 267 q 528 393 568 393 q 481 336 481 393 m 391 245 q 435 412 391 342 q 558 487 483 487 q 682 429 629 487 q 741 255 741 363 q 694 71 741 140 q 564 0 646 0 q 433 81 480 0 q 393 245 393 149 l 391 245 m 519 830 q 635 872 572 861 l 226 -1 q 110 -33 168 -33 l 519 831 l 519 830 z "},"&":{"ha":1036,"x_min":0,"x_max":968,"o":"m 487 492 q 845 567 631 567 q 968 554 913 567 l 952 497 q 846 510 898 510 q 659 471 754 510 q 693 471 667 471 l 762 471 q 840 428 800 471 q 886 302 886 374 q 366 -3 886 -3 q 113 144 229 -3 q 0 438 0 289 q 109 733 0 612 q 313 872 186 819 q 432 909 398 909 q 633 883 558 909 q 819 767 733 852 l 650 710 q 363 819 544 819 q 201 719 263 819 q 146 514 147 629 l 146 510 q 262 215 146 338 q 557 92 378 92 q 706 133 652 92 q 760 254 760 174 q 624 437 760 385 q 610 438 616 438 q 550 422 581 438 l 491 490 l 487 492 m 439 541 l 375 444 l 163 444 l 215 541 l 439 541 z "},"'":{"ha":300,"x_min":0,"x_max":232,"o":"m 5 822 q 116 943 33 879 q 170 880 142 915 q 232 803 199 845 q 212 772 224 790 q 182 729 200 754 l 115 587 l 66 574 l 71 719 q 43 760 60 734 q 0 819 26 786 l 0 821 l 5 822 z "},"(":{"ha":444,"x_min":0,"x_max":376,"o":"m 315 4 q 371 13 330 4 l 376 -31 q 208 -67 294 -67 q 50 36 107 -67 q 0 267 0 130 q 53 580 0 438 q 237 832 113 747 l 279 796 q 173 610 216 756 q 142 469 152 541 q 132 321 132 397 q 175 107 132 195 q 315 5 227 5 l 315 4 z "},")":{"ha":480,"x_min":0,"x_max":412,"o":"m 0 832 q 35 856 14 845 q 79 875 56 867 q 125 888 102 883 q 166 893 149 893 q 345 816 275 893 q 412 646 412 741 q 142 -32 412 153 l 136 60 q 252 223 209 102 q 288 447 288 326 q 229 700 288 584 q 107 810 172 810 q 45 795 83 810 l 4 831 l 4 832 l 0 832 z "},"*":{"ha":632,"x_min":1,"x_max":564,"o":"m 224 738 l 216 861 l 272 945 l 359 888 l 353 736 l 467 782 l 564 754 l 537 654 l 391 612 l 470 518 l 474 418 l 370 413 l 286 538 l 220 434 l 125 399 l 89 497 l 182 616 l 63 646 l 1 726 l 82 790 l 224 738 z "},"+":{"ha":533,"x_min":0,"x_max":465,"o":"m 178 473 l 3 473 l 3 474 l 0 474 q 33 518 14 495 q 73 567 50 541 l 174 567 l 168 698 l 224 782 l 311 725 l 311 567 l 465 567 l 406 473 l 311 473 l 311 311 l 267 262 l 186 301 l 178 473 z "},",":{"ha":317,"x_min":0,"x_max":249,"o":"m 19 109 q 129 231 50 174 q 249 92 192 163 q 136 -96 193 -6 q 18 -268 79 -186 l 0 -176 l 123 9 q 19 109 72 44 z "},"-":{"ha":533,"x_min":0,"x_max":465,"o":"m 0 474 q 33 518 14 495 q 73 567 50 541 l 465 567 l 406 473 l 3 473 l 3 474 l 0 474 z "},".":{"ha":275,"x_min":1,"x_max":208,"o":"m 1 106 q 113 226 35 165 q 169 153 146 184 q 208 100 192 121 q 156 52 184 75 q 94 5 127 28 q 43 54 66 28 q 1 106 20 80 l 1 106 z "},"/":{"ha":593,"x_min":0,"x_max":526,"o":"m 410 875 q 526 918 463 906 l 116 44 q 0 12 58 12 l 410 876 l 410 875 z "},":":{"ha":274,"x_min":1,"x_max":206,"o":"m 1 115 q 111 232 38 181 q 157 173 134 203 q 206 109 180 142 q 155 59 183 83 q 93 16 126 36 q 1 115 38 62 m 1 460 q 111 580 34 522 q 152 528 129 559 q 206 456 175 497 q 155 407 183 431 q 93 361 126 384 q 1 460 41 406 z "},";":{"ha":318,"x_min":0,"x_max":250,"o":"m 18 479 q 129 602 54 547 q 180 536 157 568 q 222 477 203 505 q 172 427 199 451 q 111 380 144 404 q 17 481 58 424 l 18 479 m 19 110 q 129 231 53 172 q 186 168 155 202 q 250 90 216 133 q 139 -98 196 -7 q 18 -269 83 -186 l 0 -178 l 123 7 q 72 52 98 26 q 19 110 47 77 z "},"<":{"ha":511,"x_min":0,"x_max":444,"o":"m 142 570 l 444 214 l 307 142 l 10 473 l 0 545 l 335 829 l 378 783 l 143 570 l 143 571 l 142 570 z "},"=":{"ha":498,"x_min":1,"x_max":431,"o":"m 1 500 q 33 544 16 521 q 75 593 52 567 l 431 593 l 372 498 l 1 498 l 1 500 m 1 302 q 30 342 12 319 q 73 397 47 366 l 429 397 l 371 302 l 1 302 z "},">":{"ha":505,"x_min":0,"x_max":437,"o":"m 427 479 l 427 479 l 437 407 q 285 278 368 349 q 104 123 202 209 l 66 170 q 161 258 104 206 q 296 382 218 311 q 173 530 248 442 q 0 737 98 618 l 134 809 l 427 479 z "},"?":{"ha":627,"x_min":0,"x_max":559,"o":"m 0 727 q 132 861 54 809 q 307 916 216 916 q 477 865 402 916 q 559 722 559 809 q 484 574 559 648 q 322 468 418 504 q 303 424 315 450 q 275 365 290 398 q 228 335 249 348 q 191 312 208 322 l 232 518 q 410 680 410 549 q 342 793 410 750 q 203 832 283 832 q 127 786 160 832 q 98 740 113 763 q 67 693 83 716 l 1 727 l 0 727 m 161 100 q 271 202 206 169 q 312 156 289 184 q 363 93 335 127 q 309 41 338 64 q 252 0 281 18 q 161 100 201 41 z "},"@":{"ha":932,"x_min":0,"x_max":865,"o":"m 382 535 q 433 379 382 445 q 576 306 486 306 q 638 316 617 306 q 653 326 643 319 q 677 347 664 333 l 674 677 q 600 717 627 708 q 509 729 564 729 l 500 730 q 484 731 491 731 q 385 535 385 731 l 385 536 l 382 535 m 469 782 q 331 795 405 795 q 184 720 233 795 q 143 548 143 656 l 143 549 l 142 548 q 252 224 142 338 q 597 102 368 102 q 732 149 682 102 l 802 165 q 769 134 787 149 q 447 -3 617 -3 q 129 132 258 -3 q 0 469 0 268 q 136 763 0 631 q 441 895 273 895 q 762 783 612 895 q 790 761 777 772 q 821 737 808 750 l 821 732 q 824 728 823 730 l 821 724 l 821 316 l 819 315 l 865 299 q 768 216 823 240 q 667 292 709 245 q 503 224 577 224 q 322 299 391 224 q 258 473 258 370 q 392 736 258 638 q 469 782 431 765 z "},"A":{"ha":934,"x_min":0,"x_max":866,"o":"m 348 791 q 203 722 239 791 q 178 571 178 675 l 178 514 q 174 442 178 468 l 638 442 l 610 690 q 349 790 424 790 l 349 791 l 348 791 m 809 77 l 866 49 l 770 -45 l 742 -45 l 660 9 l 637 368 l 170 368 l 96 39 l 0 -28 l 41 100 l 64 626 q 183 772 134 714 q 260 858 232 830 q 368 915 318 915 q 595 869 477 915 q 701 817 652 845 q 791 751 750 789 l 809 77 z "},"B":{"ha":924,"x_min":0,"x_max":856,"o":"m 566 637 q 766 557 683 626 q 856 374 856 482 q 694 81 856 179 q 308 -4 550 -4 q 231 3 285 -4 q 89 22 176 9 l 58 755 l 0 802 q 89 920 28 871 l 115 920 q 233 819 187 884 q 281 848 258 832 q 330 879 304 863 q 460 915 395 915 q 625 869 524 915 q 692 835 664 850 q 736 806 720 819 l 745 755 l 566 654 l 570 637 l 566 637 m 233 83 q 441 41 345 41 q 623 93 548 41 q 713 273 713 155 q 630 468 713 393 q 458 534 553 534 q 321 517 393 534 l 331 555 l 571 694 q 490 785 550 751 q 372 813 435 813 q 226 762 305 813 l 233 81 l 233 83 z "},"C":{"ha":778,"x_min":0,"x_max":710,"o":"m 1 438 q 107 742 1 606 q 448 909 233 909 q 617 872 553 909 q 710 789 653 852 l 587 714 q 303 804 452 804 q 168 722 212 804 q 130 561 130 656 q 246 228 130 340 q 511 126 347 130 l 537 126 q 621 130 585 126 q 696 149 667 136 l 572 -9 q 500 -10 534 -10 l 441 -10 q 87 159 206 -10 q 0 438 0 282 l 0 439 l 1 438 z "},"D":{"ha":951,"x_min":0,"x_max":884,"o":"m 153 892 q 259 903 200 899 q 393 907 318 907 q 713 812 576 907 q 884 471 884 693 q 758 140 884 275 q 598 30 690 66 q 394 -6 508 -6 q 72 13 252 -6 l 72 675 l 183 745 l 183 763 l 175 763 q 84 773 136 763 q 0 814 9 789 l 0 863 l 76 925 l 86 925 q 99 924 93 925 q 151 890 130 896 l 153 892 m 213 72 q 497 52 295 52 q 663 132 598 52 q 734 393 734 224 q 642 659 734 549 q 358 781 536 781 q 275 768 300 781 q 246 749 262 762 q 213 715 231 736 l 213 72 z "},"E":{"ha":829,"x_min":0,"x_max":762,"o":"m 549 126 q 742 157 688 126 q 751 156 745 157 q 760 155 758 155 l 633 -3 q 463 -10 553 -10 q 123 112 246 -10 q 0 450 0 236 q 152 799 0 670 q 463 909 283 909 q 762 806 563 909 q 639 719 711 760 q 557 760 589 745 q 509 781 524 776 q 295 809 421 809 q 140 589 159 809 l 597 589 l 540 496 l 136 496 q 549 127 136 127 l 549 126 z "},"F":{"ha":707,"x_min":0,"x_max":639,"o":"m 187 848 q 156 845 173 846 l 155 598 l 583 598 l 514 498 l 153 514 l 149 1 l 0 1 l 0 896 q 136 897 53 897 q 334 896 220 897 q 528 888 451 890 q 639 880 606 885 l 574 790 q 223 846 388 846 l 187 846 l 187 848 z "},"G":{"ha":964,"x_min":0,"x_max":896,"o":"m 142 524 l 144 523 q 268 210 144 338 q 555 84 389 84 q 703 127 640 84 q 769 262 769 176 q 690 442 769 368 q 532 505 617 505 q 408 474 501 505 l 398 519 l 640 671 q 538 782 626 739 q 379 823 458 823 q 205 726 275 823 q 142 524 142 636 m 639 607 q 656 608 648 608 q 795 561 726 608 q 896 372 896 496 q 756 90 896 195 q 445 -5 630 -5 q 134 123 268 -5 q 0 431 0 252 q 186 800 0 661 q 482 909 330 909 q 670 871 577 909 q 821 768 766 831 l 635 624 l 635 608 l 639 607 z "},"H":{"ha":824,"x_min":0,"x_max":756,"o":"m 173 597 q 286 666 216 638 q 395 692 351 692 q 647 612 548 692 q 756 370 756 524 q 657 77 756 189 q 477 -18 572 -18 q 348 27 420 -18 l 425 132 q 553 76 521 76 q 612 132 589 76 q 631 254 631 180 q 541 496 631 398 q 325 594 451 594 q 160 530 224 594 l 136 -4 l 0 0 l 0 899 l 652 889 l 598 816 q 583 814 590 814 q 536 832 559 814 l 159 856 l 172 593 l 172 594 l 173 597 z "},"I":{"ha":221,"x_min":0,"x_max":153,"o":"m 153 -7 l 0 -3 l 0 902 l 152 902 l 153 -7 z "},"J":{"ha":562,"x_min":0,"x_max":494,"o":"m 76 901 q 277 863 178 863 q 392 879 330 863 q 442 893 418 885 q 494 907 468 901 l 428 755 l 428 -5 q 394 -76 428 -26 q 289 -173 352 -134 q 115 -222 212 -222 q 37 -214 76 -222 l 37 -183 q 174 -159 138 -175 q 272 18 272 -113 l 272 652 l 363 799 l 342 799 q 144 749 250 749 q 0 777 80 749 l 76 901 z "},"K":{"ha":865,"x_min":0,"x_max":798,"o":"m 730 566 l 729 561 q 624 460 693 509 q 577 432 608 450 q 498 384 545 412 q 798 62 726 250 l 661 -7 q 532 165 620 72 q 328 286 415 286 l 278 286 l 278 319 l 561 469 q 471 577 540 541 q 325 608 406 608 q 149 540 212 608 l 147 1 l 0 1 l 0 911 q 136 913 53 913 q 329 911 218 913 q 521 906 445 909 q 630 898 595 903 l 566 806 q 223 865 385 865 l 188 865 q 155 863 173 865 l 153 593 q 405 703 322 703 q 730 566 613 703 z "},"L":{"ha":748,"x_min":0,"x_max":680,"o":"m 107 81 q 397 160 241 160 q 680 111 562 160 l 583 -6 q 452 22 537 -4 q 371 43 411 35 q 294 52 332 50 l 268 52 q 31 0 129 52 q 0 -3 18 -3 l 16 637 q 134 822 18 734 q 370 909 250 909 q 574 856 439 909 l 456 768 q 272 832 342 829 l 267 832 q 210 821 239 832 q 172 772 174 803 l 151 179 l 107 81 z "},"M":{"ha":1434,"x_min":0,"x_max":1366,"o":"m 718 780 q 955 888 862 888 q 1244 764 1124 888 q 1366 463 1366 638 q 1249 161 1366 323 q 1171 66 1210 109 q 1094 -6 1133 24 l 1065 -6 q 1210 405 1210 209 q 1124 653 1210 535 q 897 790 1031 780 l 888 790 q 826 774 857 790 q 793 759 808 767 q 759 743 777 751 l 728 1 l 589 1 l 584 679 q 460 754 563 707 q 326 799 362 799 q 187 703 243 799 q 136 522 136 617 q 199 283 136 407 q 340 99 258 162 l 223 3 q 57 182 116 68 q 0 411 0 290 l 0 416 q 116 726 3 584 q 391 875 237 875 q 576 842 496 875 q 646 810 610 826 q 718 780 682 795 z "},"N":{"ha":922,"x_min":0,"x_max":854,"o":"m 240 795 l 239 793 q 471 895 384 895 q 733 799 620 895 q 854 550 854 697 q 791 277 854 392 q 669 112 773 243 q 736 92 718 92 q 746 94 739 92 q 767 100 755 97 q 791 106 779 103 q 814 109 804 109 q 832 107 826 109 l 767 24 q 694 9 728 14 q 635 3 661 4 q 548 20 587 3 l 548 64 q 705 425 705 212 q 603 694 705 583 q 384 798 505 798 q 237 743 363 798 l 224 1 l 72 1 l 67 749 l 0 777 l 13 822 l 96 897 l 123 897 l 240 795 z "},"O":{"ha":998,"x_min":0,"x_max":930,"o":"m 0 469 q 136 763 0 631 q 441 895 273 895 q 762 783 612 895 q 930 464 930 657 q 769 134 930 278 q 447 -3 617 -3 q 129 132 258 -3 q 0 469 0 268 m 142 548 q 252 224 142 338 q 597 102 368 102 q 806 385 806 102 q 661 699 806 589 q 331 795 534 795 q 184 720 233 795 q 143 548 143 656 l 143 549 l 142 548 z "},"P":{"ha":972,"x_min":0,"x_max":905,"o":"m 237 802 q 508 892 358 892 q 810 753 696 892 q 905 524 905 640 q 789 159 905 300 q 461 7 669 7 q 222 76 361 7 l 203 -174 q 70 -202 93 -202 q 62 767 62 -202 l 0 800 q 111 911 41 858 q 237 800 193 870 l 237 802 m 342 176 q 399 147 371 162 q 456 116 428 132 q 558 90 510 90 q 578 92 568 90 q 720 195 671 102 q 762 385 762 277 q 652 680 762 559 q 384 800 544 800 q 229 729 299 800 l 219 98 l 319 175 l 340 175 l 340 176 l 342 176 z "},"Q":{"ha":1003,"x_min":0,"x_max":935,"o":"m 899 56 l 935 56 l 889 -6 q 863 -9 879 -9 q 827 -6 848 -9 q 756 33 789 12 q 699 76 724 53 q 446 1 590 1 q 112 130 233 1 q 0 441 0 248 q 104 728 0 614 q 303 854 179 810 q 433 883 382 883 q 768 774 626 883 q 919 486 919 657 q 885 304 919 404 q 796 147 846 193 l 903 52 l 899 56 m 126 510 q 245 206 126 322 q 567 90 366 90 q 728 173 669 90 q 782 355 782 248 q 640 683 782 559 q 313 796 507 796 q 174 701 226 796 q 129 515 129 621 l 129 517 l 126 510 z "},"R":{"ha":1006,"x_min":0,"x_max":938,"o":"m 602 491 q 787 330 684 457 q 938 59 899 193 q 817 -35 899 26 q 376 441 680 342 l 407 484 l 687 640 q 584 734 669 693 q 414 776 498 776 q 235 701 299 776 l 192 -7 l 67 -7 l 54 742 l 0 766 q 96 873 26 822 l 153 858 l 236 754 q 300 790 269 772 q 365 826 331 808 q 441 854 404 846 q 518 862 479 862 q 858 718 733 862 l 825 674 l 590 527 l 601 492 l 600 492 q 602 491 600 492 z "},"S":{"ha":890,"x_min":0,"x_max":822,"o":"m 295 503 q 435 548 336 503 q 574 594 538 594 q 747 519 673 594 q 822 347 822 445 q 693 104 822 210 q 384 1 564 1 q 0 140 203 1 l 117 233 q 290 139 197 180 q 474 87 406 87 q 631 129 587 87 q 683 289 683 173 q 595 421 683 353 q 473 484 513 484 q 353 437 464 484 q 208 392 246 392 q 75 446 133 392 q 18 574 18 501 q 129 798 18 713 q 379 878 232 878 q 548 846 448 878 q 727 767 647 816 l 613 687 l 587 687 q 275 800 382 800 q 175 746 209 800 q 149 651 149 705 q 191 543 149 584 q 292 501 232 501 l 292 503 l 295 503 z "},"T":{"ha":836,"x_min":0,"x_max":768,"o":"m 192 883 l 228 880 q 342 875 265 878 q 488 869 422 871 q 606 865 555 866 l 667 865 q 768 867 750 865 q 759 833 768 852 q 736 802 751 817 q 701 773 720 786 q 661 756 682 762 l 414 756 q 285 618 329 707 q 242 433 242 534 q 355 199 242 278 q 606 130 451 130 q 749 143 690 130 l 661 1 q 618 0 651 0 l 528 0 q 226 100 338 0 q 104 392 104 206 q 352 760 104 612 q 218 772 281 772 q 0 719 76 772 q 77 826 23 776 q 192 878 136 878 l 192 883 z "},"U":{"ha":947,"x_min":0,"x_max":879,"o":"m 848 99 l 879 63 l 767 -6 q 640 99 700 35 l 445 -1 q 378 -5 421 -5 q 116 111 220 -5 q 18 365 18 220 q 197 749 18 594 q 89 790 156 790 q 0 774 56 790 l 85 867 q 155 886 136 886 q 232 861 172 886 q 286 835 263 848 q 331 810 311 823 q 153 416 153 653 q 249 187 153 275 q 490 97 345 97 q 659 174 600 97 l 625 754 l 591 774 l 713 879 l 800 817 l 845 98 l 845 99 l 848 99 z "},"V":{"ha":937,"x_min":0,"x_max":869,"o":"m 687 885 q 869 675 869 861 q 773 438 869 598 q 697 321 742 388 q 587 165 651 252 q 504 47 532 90 q 471 -6 475 4 q 451 -9 458 -9 q 304 81 391 -9 l 67 745 l 0 770 l 13 819 l 96 898 q 106 899 100 899 q 165 882 134 899 q 222 819 206 861 l 490 116 l 513 116 q 536 157 518 129 q 587 229 554 186 q 684 392 653 325 q 734 594 734 498 q 701 700 734 651 q 623 753 667 753 q 600 749 612 753 l 600 787 l 687 885 z "},"W":{"ha":1400,"x_min":0,"x_max":1333,"o":"m 1144 880 q 1193 869 1167 878 q 1255 840 1221 858 q 1333 749 1333 796 q 1220 370 1333 607 q 994 3 1115 144 q 889 41 933 20 l 696 508 l 442 5 q 379 20 408 9 q 326 46 349 28 q 246 233 308 58 q 72 747 184 408 q 18 770 46 770 q 0 768 10 770 l 0 804 l 94 896 q 163 875 127 896 q 218 813 205 849 l 439 176 l 473 152 l 669 626 l 589 768 l 553 768 l 553 809 l 633 889 q 742 854 682 883 q 1027 138 793 816 l 1050 138 q 1238 679 1238 445 q 1171 739 1238 715 q 1055 755 1120 755 l 1063 793 l 1144 880 z "},"X":{"ha":1003,"x_min":0,"x_max":935,"o":"m 495 647 q 613 814 515 734 q 791 889 709 889 q 935 848 832 889 l 823 746 q 724 777 773 777 q 570 682 626 777 q 519 484 519 597 q 591 243 519 351 q 774 132 666 132 l 911 132 l 810 0 q 785 -1 798 -1 q 545 84 653 -1 q 419 262 450 161 q 319 92 382 163 q 160 1 242 1 q 0 30 87 1 l 0 68 l 99 156 q 220 125 143 125 q 347 205 303 125 q 388 419 388 282 l 388 429 q 299 677 387 581 q 75 776 212 776 q 7 769 44 776 l 115 888 l 121 888 q 325 844 242 888 q 495 650 422 789 l 495 647 z "},"Y":{"ha":924,"x_min":0,"x_max":856,"o":"m 688 897 q 700 899 690 899 q 791 865 733 899 q 856 790 856 826 q 747 439 856 633 q 686 344 734 419 q 547 138 637 269 q 438 -98 438 -18 q 500 -135 438 -112 l 376 -192 q 362 -121 362 -156 q 406 31 362 -59 q 387 40 398 35 q 357 53 374 46 q 326 66 339 60 q 305 76 315 72 l 68 741 l 0 772 l 0 816 l 83 898 q 168 861 119 898 q 237 772 220 822 l 461 138 q 500 134 484 134 l 508 134 q 544 201 521 160 q 604 299 567 242 q 656 384 635 345 q 690 455 677 422 q 726 666 726 550 q 684 736 726 700 q 604 772 643 772 q 591 769 600 772 l 687 896 l 687 897 l 688 897 z "},"Z":{"ha":898,"x_min":0,"x_max":830,"o":"m 504 631 l 513 631 q 729 562 642 631 q 830 355 830 486 q 690 113 830 228 q 371 -3 547 -3 q 267 3 321 -3 q 153 20 213 7 q 67 40 106 30 q 0 62 28 52 l 100 188 q 441 84 273 84 q 616 125 563 84 q 679 285 677 172 l 679 289 q 608 452 679 387 q 407 524 531 524 q 323 507 376 524 q 237 491 268 491 l 237 543 l 550 749 l 550 767 q 479 756 510 759 q 425 754 448 754 q 394 756 422 754 q 307 764 366 759 q 203 772 248 769 q 126 774 160 774 q 5 736 59 774 l 10 780 q 305 896 199 896 q 375 893 336 896 q 463 885 414 890 q 600 878 559 878 q 640 879 616 878 q 699 883 665 880 q 758 886 732 885 q 804 888 783 888 l 760 830 l 491 660 l 504 634 l 504 631 z "},"[":{"ha":560,"x_min":0,"x_max":492,"o":"m 492 974 l 435 840 l 205 835 l 189 90 l 130 -57 l 491 -26 l 422 -152 l 0 -165 l 58 -9 l 76 743 l 279 954 l 492 974 z "},"\\":{"ha":593,"x_min":0,"x_max":526,"o":"m 116 876 l 526 12 q 410 44 468 12 l 0 918 q 116 875 63 906 l 116 876 z "},"]":{"ha":563,"x_min":0,"x_max":495,"o":"m 75 956 l 495 969 l 437 817 l 419 59 l 237 -144 l 0 -170 l 59 -36 l 291 -31 l 305 711 l 368 861 l 370 884 l 4 831 l 76 955 l 76 956 l 75 956 z "},"^":{"ha":791,"x_min":205,"x_max":723,"o":"m 495 1283 l 723 1090 l 630 964 q 397 1154 553 1025 l 258 1004 l 205 1048 l 422 1290 l 497 1283 l 495 1283 z "},"_":{"ha":804,"x_min":0,"x_max":736,"o":"m 0 -159 q 17 -136 4 -157 q 56 -77 30 -116 l 736 -64 l 692 -147 l 0 -160 l 0 -159 z "},"`":{"ha":692,"x_min":207,"x_max":624,"o":"m 207 1204 q 332 1314 256 1251 l 624 969 l 574 954 q 397 1065 488 1002 q 207 1204 306 1128 z "},"a":{"ha":675,"x_min":0,"x_max":607,"o":"m 561 93 l 607 76 q 510 -14 566 12 q 410 68 451 17 q 245 -6 319 -6 q 64 76 133 -6 q 0 267 0 153 q 134 554 0 447 q 323 634 233 634 q 454 616 387 634 q 563 555 526 595 l 563 94 l 561 93 m 125 334 q 175 163 125 236 q 318 84 228 84 q 380 96 359 84 q 395 106 385 98 q 420 129 406 113 l 416 490 q 342 534 370 523 q 252 547 307 547 l 242 548 q 226 549 233 549 q 127 334 127 549 l 127 335 l 125 334 z "},"b":{"ha":625,"x_min":0,"x_max":557,"o":"m 133 129 l 136 129 q 328 75 248 75 q 412 109 387 75 q 446 271 446 155 q 387 458 446 371 q 242 547 328 547 q 146 510 187 547 l 133 129 m 153 567 q 302 638 250 638 q 484 557 412 637 q 557 362 557 477 q 435 64 557 161 q 250 -3 351 -3 q 0 85 109 -3 l 18 863 l 152 909 l 152 566 l 153 567 z "},"c":{"ha":542,"x_min":0,"x_max":474,"o":"m 0 299 q 98 553 0 451 q 258 635 178 635 q 474 561 380 635 q 385 471 432 504 q 214 561 239 561 q 140 500 163 561 q 120 381 120 452 q 385 102 120 102 l 424 102 l 415 100 q 463 116 434 102 q 352 -5 437 72 q 110 66 205 -5 q 0 298 0 149 l 0 299 z "},"d":{"ha":681,"x_min":0,"x_max":613,"o":"m 143 311 l 144 307 q 216 142 144 209 q 384 76 289 76 q 513 254 513 76 q 448 441 513 345 q 305 587 393 526 q 143 311 145 541 m 7 790 q 56 850 31 823 q 107 902 81 879 q 613 323 613 603 q 510 97 613 197 q 276 -4 410 -4 q 85 89 170 -4 q 0 288 0 179 q 80 491 0 401 q 268 614 155 578 q 7 790 130 728 z "},"e":{"ha":600,"x_min":0,"x_max":532,"o":"m 207 549 l 208 548 q 123 376 123 548 l 404 368 q 207 549 385 548 m 0 252 q 77 518 0 408 q 277 627 157 627 q 452 570 375 627 q 532 415 532 508 q 524 321 532 368 l 123 326 q 395 99 133 99 q 498 121 460 99 q 398 0 465 43 q 357 -5 375 -3 q 329 -7 339 -7 q 99 70 200 -7 q 0 252 0 146 l 0 252 z "},"f":{"ha":382,"x_min":0,"x_max":315,"o":"m 57 793 q 172 901 134 901 q 315 829 193 901 l 237 746 q 213 760 228 750 q 174 785 197 770 q 120 803 146 803 l 120 713 q 187 630 120 664 q 294 604 242 604 l 307 604 l 302 535 l 216 535 l 212 -4 l 54 -4 l 67 541 l 0 541 l 13 585 l 36 590 l 53 795 l 53 796 l 57 793 z "},"g":{"ha":672,"x_min":0,"x_max":604,"o":"m 429 371 l 474 455 q 336 522 432 496 q 213 543 262 543 q 139 365 139 543 q 332 93 139 93 q 447 138 393 93 l 429 370 l 429 371 m 564 484 l 604 30 q 507 -153 589 -76 q 325 -229 424 -229 l 312 -229 q 18 -166 232 -225 q 119 -66 58 -103 q 256 -115 147 -83 q 404 -146 368 -146 q 471 -45 471 -146 q 467 -7 471 -43 q 452 93 461 26 q 420 63 435 79 q 388 33 405 47 q 224 -1 338 -1 q 85 76 165 -1 q 0 252 0 161 q 120 524 0 408 q 351 631 231 631 q 458 608 397 631 q 507 587 484 598 q 555 568 530 578 q 594 522 584 545 l 566 484 l 564 484 z "},"h":{"ha":644,"x_min":0,"x_max":576,"o":"m 139 528 q 226 577 172 551 q 316 606 285 606 q 511 513 439 606 q 576 321 576 433 q 527 117 576 205 q 428 7 488 49 q 353 -26 381 -26 q 256 7 300 -26 q 334 104 282 63 q 408 59 357 59 q 445 132 429 59 q 458 226 458 184 q 392 420 458 328 q 239 515 325 515 q 132 451 160 515 l 111 -6 l 0 -6 l 0 846 q 140 892 64 883 l 140 530 l 139 528 z "},"i":{"ha":292,"x_min":1,"x_max":224,"o":"m 180 106 l 224 80 l 138 -5 q 127 -6 134 -6 q 105 -3 117 -6 q 33 72 66 28 l 7 523 l 17 564 l 82 626 l 102 613 q 161 574 122 600 l 180 109 l 180 106 m 75 899 q 92 898 81 899 q 109 897 105 897 l 186 827 l 106 732 l 83 732 l 1 798 q 75 899 24 856 z "},"j":{"ha":297,"x_min":-20,"x_max":200,"o":"m 100 613 q 110 615 106 615 q 120 612 113 615 l 190 538 l 173 -132 q 92 -204 101 -199 q -20 -238 41 -238 q 47 -142 -20 -204 l 52 476 l -1 509 q 100 612 35 571 l 100 613 m 89 899 q 106 898 94 899 q 123 897 119 897 l 200 827 l 120 732 l 97 732 l 14 798 q 89 899 37 856 z "},"k":{"ha":646,"x_min":0,"x_max":578,"o":"m 393 319 q 578 59 578 178 l 578 58 l 469 -7 q 374 179 441 91 q 258 267 307 267 l 210 267 l 210 300 q 267 328 241 315 q 316 354 292 341 q 441 444 425 416 q 241 563 342 563 l 239 563 q 157 534 202 563 l 129 -4 l 0 16 l 4 859 l 152 915 l 147 573 q 199 593 173 582 q 250 610 224 602 q 351 631 307 631 q 571 519 455 631 l 558 453 q 471 408 511 433 q 393 358 431 384 l 393 319 z "},"l":{"ha":235,"x_min":0,"x_max":168,"o":"m 146 892 l 168 23 q 66 -20 121 -7 q 5 20 31 -7 l 0 850 l 146 895 l 146 892 z "},"m":{"ha":991,"x_min":0,"x_max":924,"o":"m 924 67 l 836 -16 l 816 -16 l 743 33 l 713 482 q 679 505 713 495 q 625 515 646 515 q 566 500 602 515 q 528 474 528 487 l 521 -10 l 387 1 l 376 482 q 342 515 376 500 q 285 527 311 527 l 279 527 q 249 521 265 526 q 215 509 233 515 q 179 482 179 496 l 169 -13 l 43 -1 l 47 522 l 0 531 l 5 559 l 83 634 q 188 528 144 593 q 363 625 328 625 q 531 511 379 625 q 693 618 660 618 q 863 524 727 618 l 886 90 l 886 92 l 924 67 z "},"n":{"ha":648,"x_min":0,"x_max":580,"o":"m 534 99 l 580 76 l 484 -16 q 398 52 429 16 l 380 486 q 347 513 380 497 q 285 527 311 527 q 215 511 256 527 q 175 486 175 496 l 168 -10 l 39 1 l 33 522 l 0 531 q 77 630 26 587 l 106 630 l 188 531 q 349 621 313 621 q 446 590 378 621 q 515 537 515 559 l 532 98 l 532 99 l 534 99 z "},"o":{"ha":677,"x_min":0,"x_max":610,"o":"m 0 296 q 93 523 0 422 q 285 618 182 618 q 507 549 414 618 q 610 332 610 469 q 524 93 610 193 q 313 -5 439 -5 q 66 98 149 -5 q 1 296 1 178 l 0 296 m 115 376 q 192 168 115 260 q 389 68 272 68 q 501 241 501 68 q 408 444 501 361 q 197 523 318 523 q 115 376 115 523 z "},"p":{"ha":688,"x_min":0,"x_max":620,"o":"m 203 95 q 371 54 306 54 q 500 239 500 54 q 448 438 500 361 q 292 521 391 521 q 203 487 260 521 l 203 95 m 202 544 q 362 621 339 621 q 541 547 461 621 q 620 376 620 471 q 514 84 620 186 q 265 -6 420 -6 q 229 -5 248 -6 q 193 -1 212 -4 l 175 -189 q 64 -233 116 -225 l 57 37 q 0 56 23 56 l 0 81 l 63 130 l 53 498 l 17 524 q 103 625 56 587 l 121 625 l 201 545 l 202 544 z "},"q":{"ha":626,"x_min":0,"x_max":558,"o":"m 0 250 q 120 523 0 419 q 326 608 218 608 q 558 523 460 608 l 530 -212 q 452 -235 494 -235 l 445 -229 q 421 -219 437 -225 l 404 43 q 368 27 385 35 q 331 12 349 20 q 292 0 311 3 q 255 -3 273 -3 q 76 68 149 -3 q 4 254 4 140 l 0 250 m 127 318 q 183 143 127 218 q 332 63 239 63 q 422 103 363 63 l 418 456 q 233 517 302 517 l 226 517 q 151 455 179 517 q 127 321 127 399 l 127 318 z "},"r":{"ha":489,"x_min":0,"x_max":421,"o":"m 206 538 q 237 568 222 553 q 268 598 252 583 q 332 631 307 631 q 379 611 355 631 q 421 570 382 608 q 408 536 418 551 q 385 507 399 519 q 355 486 372 494 q 323 478 339 478 q 277 498 303 478 q 242 519 252 519 q 215 494 224 519 l 215 130 q 239 98 215 110 q 279 87 259 87 l 182 -13 q 71 87 72 26 l 63 495 l 0 528 l 13 567 l 96 633 q 206 536 165 597 l 206 538 z "},"s":{"ha":648,"x_min":0,"x_max":580,"o":"m 203 353 q 305 384 248 353 q 394 415 363 415 l 398 415 q 519 376 464 415 q 580 265 580 332 q 464 57 580 134 q 276 -4 374 -4 q 119 33 196 -4 q 0 103 85 47 q 117 178 46 149 q 385 77 239 77 q 461 184 444 77 q 429 276 461 237 q 342 315 397 315 q 300 302 318 315 q 252 276 269 281 q 138 263 213 263 q 57 299 94 263 q 20 389 20 335 q 116 566 20 488 q 283 634 201 634 q 524 535 382 634 q 421 460 486 491 q 387 475 415 463 q 309 515 358 490 q 248 541 273 534 q 208 549 222 549 q 153 527 178 549 q 127 478 127 507 q 210 347 127 347 l 210 348 l 203 353 z "},"t":{"ha":400,"x_min":0,"x_max":332,"o":"m 332 607 l 332 527 l 237 527 l 237 115 l 285 84 l 213 1 q 127 30 166 7 q 85 98 85 58 l 85 526 l 0 526 l 13 595 q 33 600 20 598 q 59 606 45 603 q 192 858 169 742 l 210 858 l 239 606 l 329 606 l 329 607 l 332 607 z "},"u":{"ha":652,"x_min":0,"x_max":584,"o":"m 545 104 q 584 86 568 89 l 509 -6 q 496 -7 505 -7 q 388 80 458 -7 l 213 -3 q 147 10 176 -3 q 96 46 117 23 q 60 99 73 70 q 46 162 47 129 l 36 491 q 7 500 28 491 q 0 536 0 521 l 0 543 l 96 616 q 153 580 129 608 q 180 518 178 551 l 199 147 q 206 121 199 134 q 227 102 214 110 q 252 87 239 93 q 278 83 265 83 q 391 129 330 83 l 387 487 l 363 497 l 473 607 l 540 607 l 545 104 z "},"v":{"ha":636,"x_min":0,"x_max":568,"o":"m 422 607 q 437 608 430 608 q 524 577 486 608 q 568 491 568 541 q 316 -3 568 279 l 176 67 l 17 496 l 0 503 l 66 606 q 92 607 66 607 q 179 527 146 607 q 200 464 184 514 q 239 326 215 414 q 338 62 283 172 q 406 168 382 132 q 433 212 431 203 q 481 379 481 296 q 450 478 481 452 q 368 498 424 498 l 422 607 z "},"w":{"ha":984,"x_min":0,"x_max":916,"o":"m 777 617 q 916 468 916 606 q 890 357 916 406 l 705 22 q 640 -9 690 -9 q 610 -4 623 -9 q 524 102 553 37 q 507 152 522 109 q 458 277 490 195 l 319 -6 q 300 -7 309 -7 q 273 -5 286 -7 q 227 9 250 -1 q 162 77 178 33 l 31 497 l 0 510 l 0 557 l 59 624 q 126 603 96 624 q 168 549 157 583 l 313 106 l 331 106 q 410 281 389 220 q 427 340 420 309 q 435 408 433 371 l 392 471 q 338 515 366 508 l 407 618 l 420 618 q 521 555 497 618 l 683 100 l 706 100 l 813 304 q 821 379 821 317 q 795 473 821 447 q 701 498 769 498 l 777 617 z "},"x":{"ha":653,"x_min":0,"x_max":585,"o":"m 398 583 q 454 618 415 611 q 479 620 461 620 l 528 620 q 585 553 583 620 l 513 481 q 442 498 460 498 q 380 460 411 498 q 349 380 349 421 q 397 249 349 316 q 448 188 415 223 q 527 109 481 153 l 567 102 l 487 -4 q 473 -5 484 -5 q 281 166 405 -5 q 243 99 265 140 q 196 3 222 58 q 123 -129 152 -93 q 18 -209 79 -188 l 0 -175 q 144 7 59 -149 q 224 200 224 156 q 77 514 224 391 l 41 514 q 112 630 56 585 q 235 561 184 625 q 275 495 254 527 q 313 429 295 463 l 401 581 l 401 583 l 398 583 z "},"y":{"ha":666,"x_min":0,"x_max":598,"o":"m 388 494 q 448 621 401 559 q 562 572 521 621 q 598 471 598 528 q 587 417 598 441 l 357 -39 l 398 -218 l 323 -249 q 277 -75 282 -125 l 289 5 q 227 35 255 14 l 28 504 l 0 514 l 75 623 l 85 623 q 144 607 116 623 q 188 555 175 589 l 368 94 l 484 321 q 496 378 496 345 q 491 422 496 402 q 474 461 484 444 q 448 487 464 477 q 414 497 433 497 q 392 494 404 497 l 392 494 l 388 494 z "},"z":{"ha":606,"x_min":0,"x_max":538,"o":"m 332 392 q 484 296 428 368 q 538 120 538 224 q 435 -109 538 -4 q 213 -214 334 -214 q 0 -136 104 -214 l 85 -46 q 289 -144 168 -142 q 378 -83 344 -144 q 406 40 406 -30 q 358 218 406 136 q 237 305 307 305 q 126 282 227 305 l 134 321 q 366 523 242 387 q 299 524 330 524 l 242 524 q 213 532 229 524 q 195 540 202 537 q 182 544 187 543 q 163 545 172 545 l 149 545 q 54 514 98 545 l 54 548 q 202 646 147 646 q 239 643 213 646 q 308 635 267 640 q 394 627 351 630 q 484 625 438 625 q 524 635 496 625 l 507 577 l 321 412 q 331 391 321 406 l 331 392 l 332 392 z "},"{":{"ha":564,"x_min":0,"x_max":496,"o":"m 283 954 l 496 974 l 439 840 l 209 835 l 201 464 q 180 415 201 441 q 161 393 170 405 q 142 372 152 382 q 196 282 196 308 l 193 94 l 134 -53 l 495 -22 l 427 -148 l 4 -161 l 62 -5 l 67 277 q 0 370 67 313 q 36 401 20 385 q 72 467 72 441 l 80 749 l 283 959 l 283 954 z "},"|":{"ha":186,"x_min":0,"x_max":119,"o":"m 119 -7 l 0 -3 l 0 897 l 119 897 l 119 -7 z "},"}":{"ha":564,"x_min":0,"x_max":496,"o":"m 429 536 q 496 444 429 500 q 460 412 475 428 q 424 348 424 374 l 416 64 l 212 -144 l 0 -165 l 57 -31 l 288 -26 l 295 344 q 355 438 295 372 q 300 531 300 503 l 303 719 l 362 869 l 1 836 l 70 962 l 492 975 l 434 821 l 429 537 l 429 536 z "},"~":{"ha":859,"x_min":179,"x_max":791,"o":"m 745 1220 l 791 1179 l 590 974 l 540 982 q 463 1051 509 1010 q 355 1151 418 1094 l 222 1012 l 179 1050 l 387 1268 l 439 1260 l 613 1095 l 745 1217 l 745 1220 z "},"¡":{"ha":294,"x_min":0,"x_max":226,"o":"m 117 939 q 139 943 129 943 q 149 942 144 943 q 226 842 205 893 l 143 759 l 120 767 l 40 854 l 115 939 l 117 939 m 189 607 l 189 58 q 123 -19 169 20 q 98 -22 107 -22 q 86 -20 92 -22 l 0 62 l 46 90 l 64 616 q 98 639 77 626 q 144 669 119 652 l 188 607 l 188 608 l 189 607 z "},"¢":{"ha":587,"x_min":0,"x_max":519,"o":"m 399 611 l 519 549 q 424 463 481 498 l 368 513 l 250 125 q 336 96 291 96 q 464 116 412 96 q 353 -5 438 72 l 214 9 l 178 -106 q 126 -116 149 -116 l 113 -116 q 99 -115 106 -116 l 147 37 q 46 133 57 117 q 0 295 0 193 q 77 522 0 418 q 278 633 160 633 q 307 630 288 633 q 332 627 325 627 l 368 746 q 442 756 421 756 l 395 610 l 399 611 m 117 376 q 188 157 117 245 l 309 543 q 219 564 245 564 q 142 507 170 564 q 119 378 119 458 l 119 379 l 117 376 z "},"£":{"ha":844,"x_min":0,"x_max":776,"o":"m 194 79 l 196 77 q 252 106 222 92 q 319 129 283 119 q 394 147 361 142 q 458 152 428 152 q 776 110 675 152 l 677 -7 l 667 -7 q 555 16 623 -7 q 352 44 475 44 q 123 -3 186 44 q 106 -5 113 -5 q 90 -3 98 -5 l 107 375 l 0 375 q 39 427 20 404 q 73 468 57 450 l 112 468 q 262 821 112 715 q 421 878 342 878 q 663 822 528 878 l 547 732 q 363 795 448 793 q 298 782 329 795 q 260 741 262 767 l 250 469 l 461 469 l 402 376 l 248 379 l 239 178 l 194 79 z "},"¤":{"ha":653,"x_min":0,"x_max":585,"o":"m 220 567 l 220 566 q 338 332 220 332 q 380 397 380 332 q 341 564 380 497 q 266 623 306 623 q 220 567 220 623 m 360 704 l 401 774 l 401 776 l 398 776 q 454 812 415 804 q 479 813 461 813 l 528 813 q 585 746 583 813 l 513 674 q 442 692 460 692 q 403 677 422 692 q 420 659 412 669 q 479 486 479 594 q 463 366 479 418 q 527 302 491 337 l 567 295 l 487 189 q 473 188 484 188 q 374 247 433 188 q 302 231 342 231 q 224 254 258 231 q 196 196 210 227 q 123 64 152 100 q 18 -16 79 5 l 0 18 q 144 201 59 44 q 188 287 171 250 q 172 312 179 298 q 132 476 132 380 l 129 475 q 159 617 129 555 q 77 707 126 666 l 41 707 q 112 823 56 779 q 235 754 184 819 q 259 713 247 733 q 296 718 277 718 q 360 704 330 718 z "},"¥":{"ha":924,"x_min":0,"x_max":856,"o":"m 687 889 q 796 853 743 889 q 856 753 856 810 q 813 548 856 630 q 764 477 795 514 q 687 405 733 441 q 581 322 635 362 q 474 239 527 281 l 647 239 l 590 147 l 456 147 q 452 104 454 123 l 648 104 l 591 9 l 447 9 l 446 -3 l 500 -43 l 374 -96 q 362 -10 362 -63 l 362 9 l 220 9 q 255 56 237 33 q 294 104 273 79 l 368 104 q 371 130 370 119 q 374 147 372 140 l 219 147 q 258 196 239 173 q 292 237 276 219 l 397 237 q 401 245 399 242 q 404 250 402 248 q 345 277 370 265 q 304 296 321 290 l 67 729 l 0 760 l 0 804 l 80 886 q 182 845 146 882 q 202 817 189 838 q 235 763 216 796 l 458 361 q 497 357 482 357 l 505 357 q 616 408 572 382 q 680 460 660 434 q 724 617 724 509 q 680 728 724 690 q 590 767 646 759 l 683 893 l 683 895 l 687 889 z "},"¦":{"ha":220,"x_min":0,"x_max":152,"o":"m 152 880 l 152 428 l 0 428 l 0 880 l 152 880 m 152 -219 l 0 -219 l 0 201 l 152 201 l 152 -219 z "},"§":{"ha":652,"x_min":0,"x_max":584,"o":"m 578 501 q 532 318 578 404 q 584 218 584 252 q 461 4 584 86 q 272 -60 366 -60 q 136 -19 228 -60 q 66 17 99 -1 q 0 56 31 35 q 52 97 23 79 q 116 130 80 115 q 379 24 252 24 q 435 58 410 24 q 461 132 461 92 q 416 241 461 203 q 344 267 382 267 q 267 236 313 267 q 140 205 220 205 q 18 348 26 205 l 18 355 q 33 424 18 395 q 96 492 46 450 q 13 593 13 537 q 28 692 13 644 q 83 742 46 700 q 121 785 103 768 q 153 810 138 800 q 262 844 202 844 q 398 826 347 844 q 519 753 447 808 q 416 677 481 706 q 195 763 272 763 q 144 742 166 763 q 123 690 123 722 q 140 611 123 650 q 210 558 166 558 q 302 593 243 558 q 398 629 358 629 q 514 593 452 629 q 583 500 583 553 l 578 501 m 210 298 q 288 322 237 299 l 358 358 q 407 361 381 361 q 448 359 428 361 q 438 491 448 468 q 330 530 418 530 q 285 507 318 530 q 186 484 252 484 l 165 484 q 146 484 156 484 q 125 421 125 456 q 210 298 125 299 z "},"¨":{"ha":772,"x_min":134,"x_max":705,"o":"m 475 1108 q 524 1160 496 1128 q 591 1233 553 1191 q 705 1089 664 1164 q 591 968 669 1019 q 474 1104 527 1038 l 475 1108 m 134 1108 q 197 1177 169 1145 q 249 1233 226 1207 q 368 1089 325 1164 q 256 969 339 1025 q 209 1021 239 987 q 136 1104 179 1054 l 134 1108 z "},"©":{"ha":522,"x_min":0,"x_max":454,"o":"m 230 897 q 387 830 319 897 q 454 667 454 763 q 387 507 454 572 q 228 441 321 441 q 67 507 133 441 q 0 667 0 574 q 9 730 0 700 q 33 787 18 762 q 73 834 50 813 q 125 871 97 857 q 232 896 174 896 l 230 897 m 225 863 q 93 806 149 863 q 37 668 37 749 q 93 531 37 587 q 227 474 149 474 q 361 531 304 474 q 418 668 418 587 q 361 806 418 749 q 226 863 304 863 l 225 863 m 309 786 l 309 766 q 309 739 309 754 q 231 756 264 756 q 161 742 189 756 q 155 707 158 723 q 153 677 153 690 q 182 604 153 627 q 261 584 207 584 q 288 585 277 584 q 306 591 300 587 l 309 592 q 315 596 311 593 l 321 589 q 302 566 313 579 q 280 537 292 553 q 260 536 267 536 l 250 536 q 220 538 235 536 q 195 542 206 539 q 117 602 142 553 q 103 673 103 628 q 104 692 103 684 q 106 711 104 702 l 106 716 q 136 749 120 728 q 174 797 153 768 q 231 806 200 806 q 305 794 269 806 l 305 787 l 309 786 z "},"ª":{"ha":1085,"x_min":0,"x_max":1017,"o":"m 136 0 q 0 136 0 0 l 0 882 q 136 1017 0 1017 l 882 1017 q 1017 882 1017 1017 l 1017 136 q 882 0 1017 0 l 136 0 m 882 17 q 1000 136 1000 17 l 1000 882 q 882 1000 1000 1000 l 136 1000 q 17 882 18 1000 l 17 136 q 136 17 18 17 l 882 17 z "},"«":{"ha":898,"x_min":0,"x_max":830,"o":"m 763 770 q 666 680 724 734 q 528 554 608 626 l 830 199 l 690 129 l 397 458 l 387 531 q 526 651 444 578 q 720 817 608 722 l 762 770 l 763 770 m 374 770 q 246 652 304 706 q 139 555 188 598 q 439 199 263 416 l 303 129 l 7 458 l 0 531 l 332 817 l 372 770 l 372 772 l 374 770 z "},"¬":{"ha":1085,"x_min":0,"x_max":1017,"o":"m 136 0 q 0 136 0 0 l 0 882 q 136 1017 0 1017 l 882 1017 q 1017 882 1017 1017 l 1017 136 q 882 0 1017 0 l 136 0 m 882 17 q 1000 136 1000 17 l 1000 882 q 882 1000 1000 1000 l 136 1000 q 17 882 18 1000 l 17 136 q 136 17 18 17 l 882 17 z "},"®":{"ha":524,"x_min":0,"x_max":456,"o":"m 232 897 q 349 862 294 897 q 431 772 403 828 q 456 668 456 722 q 389 507 456 574 q 228 441 323 441 q 67 507 133 441 q 0 668 0 574 q 9 731 0 701 q 33 788 18 762 q 73 835 50 814 q 125 872 97 857 q 232 897 174 897 m 227 863 q 95 806 151 863 q 39 668 39 749 q 94 532 39 589 q 229 474 150 474 q 365 531 309 474 q 420 668 420 588 q 363 806 420 749 q 227 863 307 863 l 227 863 m 351 576 q 337 559 346 570 q 315 533 328 548 q 287 541 297 535 q 260 562 269 547 q 245 598 254 570 q 235 625 240 614 q 226 640 231 635 q 190 662 214 652 q 242 692 222 678 q 248 690 245 691 q 254 686 250 688 q 258 709 258 696 q 250 748 258 736 q 214 760 240 760 q 186 754 199 760 l 185 625 q 186 578 185 600 q 189 542 186 557 l 190 536 q 170 538 176 537 l 155 538 q 134 536 149 537 q 136 591 136 559 l 136 749 q 132 798 134 779 l 132 803 q 157 806 143 804 q 187 813 170 809 q 186 790 186 798 l 186 770 l 221 810 q 269 801 251 809 q 309 720 309 783 l 309 715 q 308 699 309 709 q 283 689 294 694 q 262 680 271 684 q 290 623 277 663 q 304 590 300 597 q 333 578 315 578 q 344 583 337 578 l 351 576 l 351 576 l 351 576 z "},"¯":{"ha":1085,"x_min":0,"x_max":1017,"o":"m 136 0 q 0 136 0 0 l 0 882 q 136 1017 0 1017 l 882 1017 q 1017 882 1017 1017 l 1017 136 q 882 0 1017 0 l 136 0 m 882 17 q 1000 136 1000 17 l 1000 882 q 882 1000 1000 1000 l 136 1000 q 17 882 18 1000 l 17 136 q 136 17 18 17 l 882 17 z "},"°":{"ha":426,"x_min":0,"x_max":358,"o":"m 180 884 q 85 845 124 884 q 45 749 45 806 q 84 654 45 693 q 180 616 123 616 q 275 654 236 616 q 313 749 313 693 q 274 845 313 806 q 180 884 235 884 m 180 929 q 306 877 254 929 q 358 750 358 824 q 305 624 358 677 q 178 571 252 571 q 52 623 103 571 q 0 750 0 675 q 53 877 0 825 q 180 929 105 929 z "},"±":{"ha":1085,"x_min":0,"x_max":1017,"o":"m 136 0 q 0 136 0 0 l 0 882 q 136 1017 0 1017 l 882 1017 q 1017 882 1017 1017 l 1017 136 q 882 0 1017 0 l 136 0 m 882 17 q 1000 136 1000 17 l 1000 882 q 882 1000 1000 1000 l 136 1000 q 17 882 18 1000 l 17 136 q 136 17 18 17 l 882 17 z "},"²":{"ha":1085,"x_min":0,"x_max":1017,"o":"m 136 0 q 0 136 0 0 l 0 882 q 136 1017 0 1017 l 882 1017 q 1017 882 1017 1017 l 1017 136 q 882 0 1017 0 l 136 0 m 882 17 q 1000 136 1000 17 l 1000 882 q 882 1000 1000 1000 l 136 1000 q 17 882 18 1000 l 17 136 q 136 17 18 17 l 882 17 z "},"³":{"ha":1085,"x_min":0,"x_max":1017,"o":"m 136 0 q 0 136 0 0 l 0 882 q 136 1017 0 1017 l 882 1017 q 1017 882 1017 1017 l 1017 136 q 882 0 1017 0 l 136 0 m 882 17 q 1000 136 1000 17 l 1000 882 q 882 1000 1000 1000 l 136 1000 q 17 882 18 1000 l 17 136 q 136 17 18 17 l 882 17 z "},"´":{"ha":724,"x_min":235,"x_max":656,"o":"m 531 1324 q 656 1217 572 1291 q 286 965 463 1067 l 235 981 l 531 1324 z "},"µ":{"ha":1085,"x_min":0,"x_max":1017,"o":"m 136 0 q 0 136 0 0 l 0 882 q 136 1017 0 1017 l 882 1017 q 1017 882 1017 1017 l 1017 136 q 882 0 1017 0 l 136 0 m 882 17 q 1000 136 1000 17 l 1000 882 q 882 1000 1000 1000 l 136 1000 q 17 882 18 1000 l 17 136 q 136 17 18 17 l 882 17 z "},"¶":{"ha":1085,"x_min":0,"x_max":1017,"o":"m 136 0 q 0 136 0 0 l 0 882 q 136 1017 0 1017 l 882 1017 q 1017 882 1017 1017 l 1017 136 q 882 0 1017 0 l 136 0 m 882 17 q 1000 136 1000 17 l 1000 882 q 882 1000 1000 1000 l 136 1000 q 17 882 18 1000 l 17 136 q 136 17 18 17 l 882 17 z "},"·":{"ha":274,"x_min":1,"x_max":206,"o":"m 1 460 q 111 580 34 522 q 152 528 129 559 q 206 456 175 497 q 155 407 183 431 q 93 361 126 384 q 1 460 41 406 z "},"¸":{"ha":333,"x_min":0,"x_max":265,"o":"m 155 -132 q 232 -196 203 -157 q 265 -285 265 -238 q 206 -394 265 -330 q 60 -497 143 -461 l 0 -420 q 119 -353 64 -394 q 179 -275 179 -308 q 140 -205 179 -243 q 53 -153 104 -169 l 168 -3 l 248 -3 l 155 -132 z "},"¹":{"ha":1085,"x_min":0,"x_max":1017,"o":"m 136 0 q 0 136 0 0 l 0 882 q 136 1017 0 1017 l 882 1017 q 1017 882 1017 1017 l 1017 136 q 882 0 1017 0 l 136 0 m 882 17 q 1000 136 1000 17 l 1000 882 q 882 1000 1000 1000 l 136 1000 q 17 882 18 1000 l 17 136 q 136 17 18 17 l 882 17 z "},"º":{"ha":1085,"x_min":0,"x_max":1017,"o":"m 136 0 q 0 136 0 0 l 0 882 q 136 1017 0 1017 l 882 1017 q 1017 882 1017 1017 l 1017 136 q 882 0 1017 0 l 136 0 m 882 17 q 1000 136 1000 17 l 1000 882 q 882 1000 1000 1000 l 136 1000 q 17 882 18 1000 l 17 136 q 136 17 18 17 l 882 17 z "},"»":{"ha":894,"x_min":0,"x_max":826,"o":"m 432 484 l 439 416 q 300 298 382 368 q 107 130 218 226 l 66 176 q 162 265 104 213 q 298 389 220 318 q 140 572 215 484 q 0 742 67 660 l 134 814 l 432 484 m 819 485 l 826 416 q 687 298 769 368 q 492 130 604 226 l 454 176 q 686 389 571 285 q 534 568 608 479 q 387 743 458 656 l 521 816 l 819 485 z "},"¼":{"ha":1085,"x_min":0,"x_max":1017,"o":"m 136 0 q 0 136 0 0 l 0 882 q 136 1017 0 1017 l 882 1017 q 1017 882 1017 1017 l 1017 136 q 882 0 1017 0 l 136 0 m 882 17 q 1000 136 1000 17 l 1000 882 q 882 1000 1000 1000 l 136 1000 q 17 882 18 1000 l 17 136 q 136 17 18 17 l 882 17 z "},"½":{"ha":1085,"x_min":0,"x_max":1017,"o":"m 136 0 q 0 136 0 0 l 0 882 q 136 1017 0 1017 l 882 1017 q 1017 882 1017 1017 l 1017 136 q 882 0 1017 0 l 136 0 m 882 17 q 1000 136 1000 17 l 1000 882 q 882 1000 1000 1000 l 136 1000 q 17 882 18 1000 l 17 136 q 136 17 18 17 l 882 17 z "},"¾":{"ha":1085,"x_min":0,"x_max":1017,"o":"m 136 0 q 0 136 0 0 l 0 882 q 136 1017 0 1017 l 882 1017 q 1017 882 1017 1017 l 1017 136 q 882 0 1017 0 l 136 0 m 882 17 q 1000 136 1000 17 l 1000 882 q 882 1000 1000 1000 l 136 1000 q 17 882 18 1000 l 17 136 q 136 17 18 17 l 882 17 z "},"¿":{"ha":622,"x_min":0,"x_max":554,"o":"m 191 819 q 304 913 242 878 q 355 865 332 890 q 397 813 379 839 q 281 710 355 749 q 242 754 265 728 q 188 817 219 780 l 191 819 m 355 80 q 492 219 410 80 l 554 186 q 418 49 505 103 q 241 -3 330 -3 q 80 47 151 -3 q 0 188 0 103 q 72 339 0 265 q 237 442 142 408 q 256 486 245 460 q 283 545 268 511 q 370 602 339 578 l 326 395 q 147 243 147 362 q 219 116 147 163 q 355 77 281 77 l 355 80 z "},"À":{"ha":934,"x_min":0,"x_max":866,"o":"m 348 791 q 203 722 239 791 q 178 571 178 675 l 178 514 q 174 442 178 468 l 638 442 l 610 690 q 349 790 424 790 l 349 791 l 348 791 m 809 77 l 866 49 l 770 -45 l 742 -45 l 660 9 l 637 368 l 170 368 l 96 39 l 0 -28 l 41 100 l 64 626 q 183 772 134 714 q 260 858 232 830 q 368 915 318 915 q 595 869 477 915 q 701 817 652 845 q 791 751 750 789 l 809 77 m 207 1204 q 332 1314 256 1251 l 624 969 l 574 954 q 397 1065 488 1002 q 207 1204 306 1128 z "},"Á":{"ha":934,"x_min":0,"x_max":866,"o":"m 531 1324 q 656 1217 572 1291 q 286 965 463 1067 l 235 981 l 531 1324 m 348 791 q 203 722 239 791 q 178 571 178 675 l 178 514 q 174 442 178 468 l 638 442 l 610 690 q 349 790 424 790 l 349 791 l 348 791 m 809 77 l 866 49 l 770 -45 l 742 -45 l 660 9 l 637 368 l 170 368 l 96 39 l 0 -28 l 41 100 l 64 626 q 183 772 134 714 q 260 858 232 830 q 368 915 318 915 q 595 869 477 915 q 701 817 652 845 q 791 751 750 789 l 809 77 z "},"Â":{"ha":934,"x_min":0,"x_max":866,"o":"m 495 1283 l 723 1090 l 630 964 q 397 1154 553 1025 l 258 1004 l 205 1048 l 422 1290 l 497 1283 l 495 1283 m 348 791 q 203 722 239 791 q 178 571 178 675 l 178 514 q 174 442 178 468 l 638 442 l 610 690 q 349 790 424 790 l 349 791 l 348 791 m 809 77 l 866 49 l 770 -45 l 742 -45 l 660 9 l 637 368 l 170 368 l 96 39 l 0 -28 l 41 100 l 64 626 q 183 772 134 714 q 260 858 232 830 q 368 915 318 915 q 595 869 477 915 q 701 817 652 845 q 791 751 750 789 l 809 77 z "},"Ã":{"ha":934,"x_min":0,"x_max":866,"o":"m 745 1220 l 791 1179 l 590 974 l 540 982 q 463 1051 509 1010 q 355 1151 418 1094 l 222 1012 l 179 1050 l 387 1268 l 439 1260 l 613 1095 l 745 1217 l 745 1220 m 348 791 q 203 722 239 791 q 178 571 178 675 l 178 514 q 174 442 178 468 l 638 442 l 610 690 q 349 790 424 790 l 349 791 l 348 791 m 809 77 l 866 49 l 770 -45 l 742 -45 l 660 9 l 637 368 l 170 368 l 96 39 l 0 -28 l 41 100 l 64 626 q 183 772 134 714 q 260 858 232 830 q 368 915 318 915 q 595 869 477 915 q 701 817 652 845 q 791 751 750 789 l 809 77 z "},"Ä":{"ha":934,"x_min":0,"x_max":866,"o":"m 475 1108 q 524 1160 496 1128 q 591 1233 553 1191 q 705 1089 664 1164 q 591 968 669 1019 q 474 1104 527 1038 l 475 1108 m 134 1108 q 197 1177 169 1145 q 249 1233 226 1207 q 368 1089 325 1164 q 256 969 339 1025 q 209 1021 239 987 q 136 1104 179 1054 l 134 1108 m 348 791 q 203 722 239 791 q 178 571 178 675 l 178 514 q 174 442 178 468 l 638 442 l 610 690 q 349 790 424 790 l 349 791 l 348 791 m 809 77 l 866 49 l 770 -45 l 742 -45 l 660 9 l 637 368 l 170 368 l 96 39 l 0 -28 l 41 100 l 64 626 q 183 772 134 714 q 260 858 232 830 q 368 915 318 915 q 595 869 477 915 q 701 817 652 845 q 791 751 750 789 l 809 77 z "},"Å":{"ha":934,"x_min":0,"x_max":866,"o":"m 348 791 q 203 722 239 791 q 178 571 178 675 l 178 514 q 174 442 178 468 l 638 442 l 610 690 q 349 790 424 790 l 348 791 m 276 1154 q 323 1270 276 1219 q 422 1320 369 1320 q 536 1283 488 1320 q 589 1173 589 1243 q 546 1049 589 1101 q 437 999 502 999 q 309 1051 352 999 q 277 1154 277 1093 l 276 1154 m 369 1181 q 393 1123 369 1149 q 457 1095 419 1095 q 493 1143 493 1095 q 463 1200 493 1177 q 395 1221 434 1221 q 369 1181 369 1221 m 809 77 l 866 49 l 770 -45 l 742 -45 l 660 9 l 637 368 l 170 368 l 96 39 l 0 -28 l 41 100 l 64 626 q 183 772 134 714 q 260 858 232 830 q 368 915 318 915 q 595 869 477 915 q 701 817 652 845 q 791 751 750 789 l 809 77 z "},"Æ":{"ha":1310,"x_min":0,"x_max":1242,"o":"m 612 513 q 718 220 612 303 q 1053 146 813 146 q 1111 149 1084 146 q 1161 156 1138 151 q 1201 165 1181 161 q 1242 174 1221 169 l 1114 13 q 1010 5 1051 7 q 948 3 969 3 q 484 340 593 3 l 170 340 l 96 36 l 0 -31 l 41 98 l 64 600 q 136 696 98 650 q 220 789 175 742 q 362 889 321 889 q 581 770 452 889 q 653 817 617 793 q 726 863 690 840 q 819 905 772 892 q 915 918 865 918 q 1098 886 1015 918 q 1152 862 1116 880 q 1241 816 1188 844 q 1118 729 1193 770 q 808 819 977 819 q 677 772 730 819 q 624 666 624 726 l 624 604 l 1077 604 l 1019 509 l 614 509 l 612 513 m 481 418 q 477 445 478 431 q 475 474 475 460 q 488 597 475 530 q 503 665 502 665 q 434 741 503 713 q 269 764 370 764 q 202 703 241 764 q 166 610 166 640 l 166 419 l 478 419 l 478 420 l 481 418 z "},"Ç":{"ha":777,"x_min":0,"x_max":709,"o":"m 427 -258 q 388 -188 427 -227 q 300 -136 352 -152 l 395 -10 q 80 169 183 5 q 0 437 0 292 q 106 741 0 604 q 447 907 232 907 q 616 871 551 907 q 709 787 652 850 l 585 713 q 302 803 451 803 q 166 720 210 803 q 129 559 129 654 q 245 227 129 339 q 510 125 345 129 l 536 125 q 620 129 584 125 q 694 147 666 134 l 571 -10 q 522 -12 545 -12 l 475 -12 l 401 -116 q 478 -180 450 -142 q 511 -268 511 -222 q 452 -376 511 -312 q 307 -479 389 -444 l 246 -404 q 365 -335 313 -375 q 425 -258 425 -291 l 425 -256 l 427 -258 z "},"È":{"ha":829,"x_min":0,"x_max":762,"o":"m 549 126 q 742 157 688 126 q 751 156 745 157 q 760 155 758 155 l 633 -3 q 463 -10 553 -10 q 123 112 246 -10 q 0 450 0 236 q 152 799 0 670 q 463 909 283 909 q 762 806 563 909 q 639 719 711 760 q 557 760 589 745 q 509 781 524 776 q 295 809 421 809 q 140 589 159 809 l 597 589 l 540 496 l 136 496 q 549 127 136 127 l 549 126 m 179 1206 q 304 1314 238 1261 l 595 969 l 547 954 q 370 1065 461 1002 q 179 1205 278 1128 l 179 1206 z "},"É":{"ha":829,"x_min":0,"x_max":762,"o":"m 549 126 q 742 157 688 126 q 751 156 745 157 q 760 155 758 155 l 633 -3 q 463 -10 553 -10 q 123 112 246 -10 q 0 450 0 236 q 152 799 0 670 q 463 909 283 909 q 762 806 563 909 q 639 719 711 760 q 557 760 589 745 q 509 781 524 776 q 295 809 421 809 q 140 589 159 809 l 597 589 l 540 496 l 136 496 q 549 127 136 127 l 549 126 m 540 1307 q 665 1196 623 1237 q 294 945 471 1046 l 242 960 l 538 1305 l 538 1307 l 540 1307 z "},"Ê":{"ha":829,"x_min":0,"x_max":762,"o":"m 549 126 q 742 157 688 126 q 751 156 745 157 q 760 155 758 155 l 633 -3 q 463 -10 553 -10 q 123 112 246 -10 q 0 450 0 236 q 152 799 0 670 q 463 909 283 909 q 762 806 563 909 q 639 719 711 760 q 557 760 589 745 q 509 781 524 776 q 295 809 421 809 q 140 589 159 809 l 597 589 l 540 496 l 136 496 q 549 127 136 127 l 549 126 m 478 1274 l 706 1081 l 613 956 q 379 1147 593 972 l 239 996 l 187 1040 l 405 1282 l 478 1274 z "},"Ë":{"ha":829,"x_min":0,"x_max":762,"o":"m 549 126 q 742 157 688 126 q 751 156 745 157 q 760 155 758 155 l 633 -3 q 463 -10 553 -10 q 123 112 246 -10 q 0 450 0 236 q 152 799 0 670 q 463 909 283 909 q 762 806 563 909 q 639 719 711 760 q 557 760 589 745 q 509 781 524 776 q 295 809 421 809 q 140 589 159 809 l 597 589 l 540 496 l 136 496 q 549 127 136 127 l 549 126 m 491 1098 q 540 1149 511 1118 q 607 1223 568 1180 q 722 1078 679 1154 q 608 959 686 1010 q 558 1015 587 982 q 490 1095 528 1049 l 491 1098 m 149 1098 q 212 1165 183 1134 q 263 1223 239 1197 q 381 1078 335 1158 q 271 959 348 1013 q 218 1015 249 982 q 149 1095 188 1049 l 149 1098 z "},"Ì":{"ha":351,"x_min":-133,"x_max":283,"o":"m 153 -7 l 0 -3 l 0 902 l 152 902 l 153 -7 m -133 1206 q -8 1314 -74 1261 l 283 969 l 235 954 q 58 1065 149 1002 q -133 1205 -34 1128 l -133 1206 z "},"Í":{"ha":351,"x_min":-133,"x_max":283,"o":"m 153 -7 l 0 -3 l 0 902 l 152 902 l 153 -7 m 283 1205 q 93 1065 184 1128 q -84 954 1 1002 l -133 969 l 159 1314 q 283 1206 224 1261 l 283 1205 z "},"Î":{"ha":397,"x_min":-189,"x_max":330,"o":"m 153 -7 l 0 -3 l 0 902 l 152 902 l 153 -7 m 102 1283 l 330 1090 l 237 964 q 3 1154 159 1025 l -136 1004 l -189 1048 l 29 1290 l 104 1283 l 102 1283 z "},"Ï":{"ha":433,"x_min":-205,"x_max":366,"o":"m 153 -7 l 0 -3 l 0 902 l 152 902 l 153 -7 m 136 1108 q 185 1160 157 1128 q 252 1233 214 1191 q 366 1089 325 1164 q 252 968 330 1019 q 135 1104 188 1038 l 136 1108 m -205 1108 q -142 1177 -170 1145 q -90 1233 -113 1207 q 28 1089 -14 1164 q -83 969 0 1025 q -130 1021 -100 987 q -203 1104 -160 1054 l -205 1108 z "},"Ð":{"ha":1029,"x_min":0,"x_max":961,"o":"m 464 432 l 405 338 l 291 338 l 291 72 q 574 52 374 52 q 741 132 677 52 q 813 393 813 224 q 719 659 813 549 q 435 781 613 781 q 352 768 378 781 q 323 749 339 762 q 290 715 308 736 l 290 434 l 463 434 l 464 432 m 0 338 q 33 381 16 358 q 75 431 52 405 l 151 431 l 151 673 l 262 742 l 262 760 l 254 760 q 162 770 215 760 q 79 812 87 786 l 79 861 l 156 922 l 165 922 q 178 922 172 922 q 231 888 210 893 q 336 899 277 896 q 471 903 395 903 q 790 808 653 903 q 961 467 961 690 q 835 136 961 271 q 677 26 767 62 q 471 -10 585 -10 q 149 9 330 -10 l 149 334 l 0 334 l 0 338 z "},"Ñ":{"ha":922,"x_min":0,"x_max":854,"o":"m 239 793 q 471 895 384 895 q 733 799 620 895 q 854 550 854 697 q 791 277 854 392 q 669 112 773 243 q 736 92 718 92 q 746 94 739 92 q 767 100 755 97 q 791 106 779 103 q 814 109 804 109 q 832 107 826 109 l 767 24 q 694 9 728 14 q 635 3 661 4 q 548 20 587 3 l 548 64 q 705 425 705 212 q 603 694 705 583 q 384 798 505 798 q 237 743 363 798 l 224 1 l 72 1 l 67 749 l 0 777 l 13 822 l 96 897 l 123 897 l 241 795 l 239 793 m 707 1201 l 753 1160 l 552 956 l 502 964 q 425 1035 471 992 q 316 1133 378 1076 l 182 996 l 141 1035 l 347 1253 l 400 1244 l 575 1078 l 705 1200 l 705 1201 l 707 1201 z "},"Ò":{"ha":998,"x_min":0,"x_max":930,"o":"m 0 469 q 136 763 0 631 q 441 895 273 895 q 762 783 612 895 q 930 464 930 657 q 769 134 930 278 q 447 -3 617 -3 q 129 132 258 -3 q 0 469 0 268 m 227 1193 q 353 1303 276 1240 l 644 959 l 594 943 q 418 1054 509 992 q 228 1193 328 1117 l 227 1193 m 142 548 q 252 224 142 338 q 597 102 368 102 q 806 385 806 102 q 661 699 806 589 q 331 795 534 795 q 184 720 233 795 q 143 548 143 656 l 143 549 l 142 548 z "},"Ó":{"ha":998,"x_min":0,"x_max":930,"o":"m 0 469 q 136 763 0 631 q 441 895 273 895 q 762 783 612 895 q 930 464 930 657 q 769 134 930 278 q 447 -3 617 -3 q 129 132 258 -3 q 0 469 0 268 m 553 1318 q 677 1207 635 1249 q 307 956 484 1058 l 255 972 l 550 1317 l 553 1318 m 142 548 q 252 224 142 338 q 597 102 368 102 q 806 385 806 102 q 661 699 806 589 q 331 795 534 795 q 184 720 233 795 q 143 548 143 656 l 143 549 l 142 548 z "},"Ô":{"ha":998,"x_min":0,"x_max":930,"o":"m 0 469 q 136 763 0 631 q 441 895 273 895 q 762 783 612 895 q 930 464 930 657 q 769 134 930 278 q 447 -3 617 -3 q 129 132 258 -3 q 0 469 0 268 m 513 1263 l 741 1069 l 648 943 q 414 1134 530 1036 l 275 985 l 222 1028 l 439 1270 l 514 1264 l 513 1263 m 142 548 q 252 224 142 338 q 597 102 368 102 q 806 385 806 102 q 661 699 806 589 q 331 795 534 795 q 184 720 233 795 q 143 548 143 656 l 143 549 l 142 548 z "},"Õ":{"ha":998,"x_min":0,"x_max":930,"o":"m 0 469 q 136 763 0 631 q 441 895 273 895 q 762 783 612 895 q 930 464 930 657 q 769 134 930 278 q 447 -3 617 -3 q 129 132 258 -3 q 0 469 0 268 m 750 1200 l 796 1158 l 595 955 l 545 962 q 468 1034 514 991 q 361 1131 422 1075 l 227 995 l 186 1034 l 392 1250 l 445 1244 l 620 1077 l 750 1198 l 750 1200 m 142 548 q 252 224 142 338 q 597 102 368 102 q 806 385 806 102 q 661 699 806 589 q 331 795 534 795 q 184 720 233 795 q 143 548 143 656 l 143 549 l 142 548 z "},"Ö":{"ha":998,"x_min":0,"x_max":930,"o":"m 0 469 q 136 763 0 631 q 441 895 273 895 q 762 783 612 895 q 930 464 930 657 q 769 134 930 278 q 447 -3 617 -3 q 129 132 258 -3 q 0 469 0 268 m 508 1095 q 557 1147 528 1116 q 625 1219 587 1178 q 739 1076 697 1151 q 625 956 700 1006 q 574 1013 604 979 q 507 1093 545 1046 l 508 1095 m 166 1095 q 220 1152 192 1121 q 279 1219 249 1183 q 398 1075 352 1154 q 288 955 365 1009 q 239 1006 269 973 q 168 1090 210 1040 l 166 1095 m 142 548 q 252 224 142 338 q 597 102 368 102 q 806 385 806 102 q 661 699 806 589 q 331 795 534 795 q 184 720 233 795 q 143 548 143 656 l 143 549 l 142 548 z "},"×":{"ha":653,"x_min":0,"x_max":585,"o":"m 398 789 q 454 825 415 817 q 479 826 461 826 l 528 826 q 585 759 583 826 l 513 687 q 442 705 460 705 q 380 666 411 705 q 349 587 349 627 q 397 455 349 522 q 448 394 415 429 q 527 315 481 359 l 567 308 l 487 202 q 473 201 484 201 q 281 372 405 201 q 243 305 265 347 q 196 209 222 264 q 123 77 152 113 q 18 -3 79 18 l 0 31 q 144 214 59 57 q 224 406 224 362 q 77 720 224 597 l 41 720 q 112 836 56 791 q 235 767 184 831 q 275 701 254 733 q 313 635 295 669 l 401 787 l 401 789 l 398 789 z "},"Ø":{"ha":997,"x_min":0,"x_max":929,"o":"m 300 -80 q 184 -113 246 -113 l 255 39 q 70 208 139 92 q 0 468 0 323 q 136 762 0 630 q 441 893 273 893 q 639 850 541 893 l 690 960 q 808 1004 746 991 l 716 810 q 929 463 929 682 q 782 147 929 291 q 442 0 633 0 q 342 10 395 0 l 299 -80 l 300 -80 m 330 796 q 183 722 232 796 q 142 549 142 657 q 317 172 142 279 l 587 746 q 330 798 469 798 l 330 796 m 600 103 q 806 385 806 103 q 664 696 806 587 l 401 130 q 600 102 488 102 l 600 103 z "},"Ù":{"ha":944,"x_min":0,"x_max":876,"o":"m 845 99 l 876 63 l 764 -6 q 639 99 694 40 l 444 -1 q 375 -5 420 -5 q 113 111 218 -5 q 16 365 16 220 q 196 749 16 594 q 89 790 155 790 q 0 774 56 790 l 85 867 q 153 886 136 886 q 232 861 172 886 q 288 835 263 848 q 332 810 312 823 q 155 416 155 653 q 250 187 155 275 q 491 97 345 97 q 660 174 600 97 l 625 754 l 591 774 l 713 879 l 800 817 l 845 98 l 845 99 m 233 1198 q 358 1308 281 1244 l 650 962 l 600 947 q 422 1058 515 996 q 233 1198 331 1121 z "},"Ú":{"ha":947,"x_min":0,"x_max":879,"o":"m 848 99 l 879 63 l 767 -6 q 640 99 700 35 l 445 -1 q 378 -5 421 -5 q 116 111 220 -5 q 18 365 18 220 q 197 749 18 594 q 89 790 156 790 q 0 774 56 790 l 85 867 q 155 886 136 886 q 232 861 172 886 q 286 835 263 848 q 331 810 311 823 q 153 416 153 653 q 249 187 153 275 q 490 97 345 97 q 659 174 600 97 l 625 754 l 591 774 l 713 879 l 800 817 l 845 98 l 848 99 m 597 1289 q 669 1224 638 1253 q 720 1178 700 1196 q 535 1044 627 1105 q 351 926 444 982 l 299 942 l 595 1287 l 595 1289 l 597 1289 z "},"Û":{"ha":947,"x_min":0,"x_max":879,"o":"m 848 99 l 879 63 l 767 -6 q 640 99 700 35 l 445 -1 q 378 -5 421 -5 q 116 111 220 -5 q 18 365 18 220 q 197 749 18 594 q 89 790 156 790 q 0 774 56 790 l 85 867 q 155 886 136 886 q 232 861 172 886 q 286 835 263 848 q 331 810 311 823 q 153 416 153 653 q 249 187 153 275 q 490 97 345 97 q 659 174 600 97 l 625 754 l 591 774 l 713 879 l 800 817 l 845 98 l 848 99 m 498 1253 l 727 1058 l 634 933 q 531 1017 589 969 q 401 1125 473 1064 l 260 973 l 209 1017 l 425 1259 l 498 1253 z "},"Ü":{"ha":947,"x_min":0,"x_max":879,"o":"m 848 99 l 879 63 l 767 -6 q 640 99 700 35 l 445 -1 q 378 -5 421 -5 q 116 111 220 -5 q 18 365 18 220 q 197 749 18 594 q 89 790 156 790 q 0 774 56 790 l 85 867 q 155 886 136 886 q 232 861 172 886 q 286 835 263 848 q 331 810 311 823 q 153 416 153 653 q 249 187 153 275 q 490 97 345 97 q 659 174 600 97 l 625 754 l 591 774 l 713 879 l 800 817 l 845 98 l 848 99 m 513 1085 q 562 1137 534 1105 q 630 1210 591 1168 q 694 1141 666 1177 q 743 1068 723 1104 q 630 948 705 999 q 580 1006 610 972 q 511 1086 550 1040 l 513 1085 m 172 1085 q 237 1157 209 1126 q 283 1211 265 1188 q 351 1141 321 1178 q 404 1067 380 1105 q 292 946 370 1000 q 245 998 275 964 q 173 1081 215 1032 l 173 1082 l 172 1085 z "},"Ý":{"ha":924,"x_min":0,"x_max":856,"o":"m 688 897 q 700 899 690 899 q 791 865 733 899 q 856 790 856 826 q 747 439 856 633 q 686 344 734 419 q 547 138 637 269 q 438 -98 438 -18 q 500 -135 438 -112 l 376 -192 q 362 -121 362 -156 q 406 31 362 -59 q 387 40 398 35 q 357 53 374 46 q 326 66 339 60 q 305 76 315 72 l 68 741 l 0 772 l 0 816 l 83 898 q 168 861 119 898 q 237 772 220 822 l 461 138 q 500 134 484 134 l 508 134 q 544 201 521 160 q 604 299 567 242 q 656 384 635 345 q 690 455 677 422 q 726 666 726 550 q 684 736 726 700 q 604 772 643 772 q 591 769 600 772 l 687 896 l 688 897 m 580 1289 q 652 1224 621 1253 q 703 1178 683 1196 q 518 1044 611 1105 q 334 926 427 982 l 282 942 l 578 1287 l 578 1289 l 580 1289 z "},"Þ":{"ha":1001,"x_min":0,"x_max":933,"o":"m 235 710 q 505 800 355 800 q 690 767 600 800 q 839 664 781 733 q 933 435 933 551 q 925 342 933 380 q 906 278 919 307 q 871 224 892 250 q 821 162 850 199 q 750 96 790 123 q 663 49 709 67 q 564 20 616 30 q 461 9 513 9 q 222 79 361 9 l 203 -172 q 70 -199 93 -199 q 62 769 62 -199 l 0 803 q 31 836 10 819 q 73 872 50 854 q 120 907 97 890 q 160 935 143 922 q 191 895 180 925 q 206 830 201 865 q 216 762 212 795 q 233 711 222 728 l 235 710 m 342 176 q 399 147 371 162 q 456 116 428 132 q 492 103 471 109 q 534 96 513 98 q 574 93 554 93 q 587 92 580 92 q 608 93 598 92 q 693 126 654 98 q 763 193 732 155 q 781 222 776 212 q 789 242 786 232 q 791 268 791 252 q 793 308 791 282 q 795 331 795 321 q 767 461 795 401 q 679 590 733 530 q 543 680 624 652 q 381 709 461 709 q 227 637 295 709 l 219 98 l 319 175 l 340 175 l 340 176 l 342 176 z "},"ß":{"ha":873,"x_min":0,"x_max":806,"o":"m 514 637 q 713 554 630 626 q 806 376 806 477 q 666 93 806 209 q 408 -10 543 -10 q 334 84 365 26 q 458 56 387 56 q 604 119 547 56 q 663 278 663 186 q 589 456 663 379 q 407 535 514 535 l 401 535 q 344 530 378 535 q 267 515 311 524 l 279 554 l 519 693 q 331 808 475 806 l 328 808 q 170 762 242 808 l 170 -133 q 113 -107 142 -120 q 57 -81 85 -94 l 0 659 q 389 911 193 911 q 538 883 469 911 q 675 806 593 859 l 684 754 l 505 653 l 510 635 l 510 637 l 514 637 z "},"à":{"ha":675,"x_min":0,"x_max":607,"o":"m 561 93 l 607 76 q 510 -14 566 12 q 410 68 451 17 q 245 -6 319 -6 q 64 76 133 -6 q 0 267 0 153 q 134 554 0 447 q 323 634 233 634 q 454 616 387 634 q 563 555 526 595 l 563 94 l 561 93 m 109 938 q 235 1048 157 985 l 526 703 l 475 688 q 295 803 385 741 q 110 937 205 865 l 109 938 m 125 334 q 175 163 125 236 q 318 84 228 84 q 380 96 359 84 q 395 106 385 98 q 420 129 406 113 l 416 490 q 342 534 370 523 q 252 547 307 547 l 242 548 q 226 549 233 549 q 127 334 127 549 l 127 335 l 125 334 z "},"á":{"ha":675,"x_min":0,"x_max":607,"o":"m 561 93 l 607 76 q 510 -14 566 12 q 410 68 451 17 q 245 -6 319 -6 q 64 76 133 -6 q 0 267 0 153 q 134 554 0 447 q 323 634 233 634 q 454 616 387 634 q 563 555 526 595 l 563 94 l 561 93 m 416 1048 q 543 938 484 994 q 357 804 450 866 q 172 688 264 742 l 120 703 l 415 1048 l 416 1048 m 125 334 q 175 163 125 236 q 318 84 228 84 q 380 96 359 84 q 395 106 385 98 q 420 129 406 113 l 416 490 q 342 534 370 523 q 252 547 307 547 l 242 548 q 226 549 233 549 q 127 334 127 549 l 127 335 l 125 334 z "},"â":{"ha":675,"x_min":0,"x_max":607,"o":"m 561 93 l 607 76 q 510 -14 566 12 q 410 68 451 17 q 245 -6 319 -6 q 64 76 133 -6 q 0 267 0 153 q 134 554 0 447 q 323 634 233 634 q 454 616 387 634 q 563 555 526 595 l 563 94 l 561 93 m 326 999 l 554 803 l 461 677 q 352 767 410 719 q 227 870 294 814 l 87 718 l 33 763 l 252 1005 l 326 998 l 326 999 m 125 334 q 175 163 125 236 q 318 84 228 84 q 380 96 359 84 q 395 106 385 98 q 420 129 406 113 l 416 490 q 342 534 370 523 q 252 547 307 547 l 242 548 q 226 549 233 549 q 127 334 127 549 l 127 335 l 125 334 z "},"ã":{"ha":689,"x_min":0,"x_max":621,"o":"m 561 93 l 607 76 q 510 -14 566 12 q 410 68 451 17 q 245 -6 319 -6 q 64 76 133 -6 q 0 267 0 153 q 134 554 0 447 q 323 634 233 634 q 454 616 387 634 q 563 555 526 595 l 563 94 l 561 93 m 576 932 l 621 890 l 420 687 l 368 694 q 262 795 307 751 q 184 866 215 838 l 50 727 l 9 767 l 218 985 l 269 977 l 445 809 l 576 930 l 576 932 m 125 334 q 175 163 125 236 q 318 84 228 84 q 380 96 359 84 q 395 106 385 98 q 420 129 406 113 l 416 490 q 342 534 370 523 q 252 547 307 547 l 242 548 q 226 549 233 549 q 127 334 127 549 l 127 335 l 125 334 z "},"ä":{"ha":684,"x_min":0,"x_max":616,"o":"m 561 93 l 607 76 q 510 -14 566 12 q 410 68 451 17 q 245 -6 319 -6 q 64 76 133 -6 q 0 267 0 153 q 134 554 0 447 q 323 634 233 634 q 454 616 387 634 q 563 555 526 595 l 563 94 l 561 93 m 387 821 q 435 872 407 842 q 503 945 464 903 q 567 875 538 911 q 616 802 595 839 q 501 682 574 729 q 451 739 481 705 q 382 819 421 772 l 387 821 m 45 821 q 110 893 81 862 q 156 947 138 925 q 222 878 192 913 q 275 803 252 842 q 163 683 241 734 q 115 734 146 701 q 44 819 85 768 l 45 821 m 125 334 q 175 163 125 236 q 318 84 228 84 q 380 96 359 84 q 395 106 385 98 q 420 129 406 113 l 416 490 q 342 534 370 523 q 252 547 307 547 l 242 548 q 226 549 233 549 q 127 334 127 549 l 127 335 l 125 334 z "},"å":{"ha":675,"x_min":0,"x_max":607,"o":"m 561 93 l 607 76 q 510 -14 566 12 q 410 68 451 17 q 245 -6 319 -6 q 64 76 133 -6 q 0 267 0 153 q 134 554 0 447 q 323 634 233 634 q 454 616 387 634 q 563 555 526 595 l 563 94 l 561 93 m 125 334 q 175 163 125 236 q 318 84 228 84 q 380 96 359 84 q 395 106 385 98 q 420 129 406 113 l 416 490 q 342 534 370 523 q 252 547 307 547 l 242 548 q 226 549 233 549 q 127 334 127 549 l 125 334 m 146 864 q 193 981 146 929 q 292 1029 239 1029 q 406 994 358 1029 q 459 883 459 953 q 416 759 459 810 q 307 709 372 709 q 179 762 222 709 q 146 864 146 803 l 146 864 m 239 891 q 264 833 239 859 q 327 806 290 806 q 363 854 363 806 q 333 909 363 886 q 265 932 304 932 q 239 891 239 932 z "},"æ":{"ha":1002,"x_min":0,"x_max":935,"o":"m 524 563 q 674 627 597 627 q 857 548 780 627 q 935 361 935 468 l 935 340 q 933 321 935 331 q 706 318 793 318 q 547 326 547 318 q 545 294 545 308 q 578 172 545 214 q 787 100 634 100 q 888 120 852 100 q 790 -1 859 45 q 756 -3 772 -3 l 722 -3 q 574 20 634 -3 q 464 96 522 41 q 418 63 441 80 q 368 33 394 47 q 302 4 335 12 q 237 -4 268 -4 q 75 71 149 -4 q 0 229 0 147 q 121 551 0 441 q 291 629 206 629 q 407 621 374 629 q 526 561 458 608 l 524 563 m 610 547 q 559 484 578 547 q 544 393 544 435 q 545 376 544 385 l 793 368 q 742 492 787 444 q 610 547 693 547 m 125 336 q 178 151 125 218 q 318 84 231 84 q 418 129 374 84 l 412 490 q 248 547 330 547 q 191 536 214 547 q 153 501 168 526 q 132 437 138 477 q 125 336 125 395 z "},"ç":{"ha":542,"x_min":0,"x_max":474,"o":"m 285 -196 q 277 -168 285 -183 q 254 -139 268 -153 q 220 -115 239 -126 q 182 -98 202 -104 l 259 4 q 76 96 146 24 q 0 299 0 173 q 98 553 0 451 q 258 635 178 635 q 474 561 380 635 q 385 471 432 504 q 214 561 239 561 q 140 500 163 561 q 120 381 120 452 q 385 102 120 102 l 424 102 l 415 100 q 463 116 434 102 q 352 -5 437 72 l 332 -5 q 319 -4 325 -5 l 264 -81 q 355 -206 355 -132 q 305 -298 355 -243 q 187 -381 254 -353 l 136 -317 q 186 -294 161 -307 q 233 -264 210 -281 q 283 -197 283 -225 l 283 -196 l 285 -196 z "},"è":{"ha":600,"x_min":0,"x_max":532,"o":"m 50 938 q 176 1048 99 985 l 468 703 l 418 688 q 237 803 328 741 q 52 937 147 865 l 50 938 m 207 549 l 208 548 q 123 376 123 548 l 404 368 q 207 549 385 548 m 0 252 q 77 518 0 408 q 277 627 157 627 q 452 570 375 627 q 532 415 532 508 q 524 321 532 368 l 123 326 q 395 99 133 99 q 498 121 460 99 q 398 0 465 43 q 357 -5 375 -3 q 329 -7 339 -7 q 99 70 200 -7 q 0 252 0 146 l 0 252 z "},"é":{"ha":600,"x_min":0,"x_max":532,"o":"m 358 1048 q 484 938 425 994 q 299 804 392 866 q 113 688 206 742 l 62 703 l 357 1048 l 358 1048 m 207 549 l 208 548 q 123 376 123 548 l 404 368 q 207 549 385 548 m 0 252 q 77 518 0 408 q 277 627 157 627 q 452 570 375 627 q 532 415 532 508 q 524 321 532 368 l 123 326 q 395 99 133 99 q 498 121 460 99 q 398 0 465 43 q 357 -5 375 -3 q 329 -7 339 -7 q 99 70 200 -7 q 0 252 0 146 l 0 252 z "},"ê":{"ha":602,"x_min":0,"x_max":534,"o":"m 207 549 l 208 548 q 123 376 123 548 l 404 368 q 207 549 385 548 m 0 252 q 77 518 0 408 q 277 627 157 627 q 452 570 375 627 q 532 415 532 508 q 524 321 532 368 l 123 326 q 395 99 133 99 q 498 121 460 99 q 398 0 465 43 q 357 -5 375 -3 q 329 -7 339 -7 q 99 70 200 -7 q 0 252 0 146 l 0 252 m 306 999 l 534 803 l 441 677 q 332 767 389 719 q 206 870 273 814 l 67 718 l 13 763 l 231 1005 l 306 998 l 306 999 z "},"ë":{"ha":623,"x_min":-17,"x_max":555,"o":"m 207 549 l 208 548 q 123 376 123 548 l 404 368 q 207 549 385 548 m 0 252 q 77 518 0 408 q 277 627 157 627 q 452 570 375 627 q 532 415 532 508 q 524 321 532 368 l 123 326 q 395 99 133 99 q 498 121 460 99 q 398 0 465 43 q 357 -5 375 -3 q 329 -7 339 -7 q 99 70 200 -7 q 0 252 0 146 l 0 252 m 326 821 q 374 872 346 842 q 441 945 403 903 q 506 875 477 911 q 555 802 534 839 q 440 682 513 729 q 390 739 420 705 q 321 819 360 772 l 326 821 m -16 821 q 49 893 20 862 q 95 947 77 925 q 161 878 131 913 q 214 803 191 842 q 102 683 180 734 q 54 734 85 701 q -17 819 24 768 l -16 821 z "},"ì":{"ha":292,"x_min":-119,"x_max":298,"o":"m 180 106 l 224 80 l 138 -5 q 127 -6 134 -6 q 105 -3 117 -6 q 33 72 66 28 l 7 523 l 17 564 l 82 626 l 102 613 q 161 574 122 600 l 180 109 l 180 106 m -119 938 q 7 1048 -71 985 l 298 703 l 248 688 q 68 803 158 741 q -118 937 -22 865 l -119 938 z "},"í":{"ha":292,"x_min":-119,"x_max":298,"o":"m 180 106 l 224 80 l 138 -5 q 127 -6 134 -6 q 105 -3 117 -6 q 33 72 66 28 l 7 523 l 17 564 l 82 626 l 102 613 q 161 574 122 600 l 180 109 l 180 106 m 297 937 q 111 803 201 865 q -69 688 21 741 l -119 703 l 172 1048 q 298 938 250 985 l 297 937 z "},"î":{"ha":292,"x_min":-170,"x_max":351,"o":"m 180 106 l 224 80 l 138 -5 q 127 -6 134 -6 q 105 -3 117 -6 q 33 72 66 28 l 7 523 l 17 564 l 82 626 l 102 613 q 161 574 122 600 l 180 109 l 180 106 m 123 999 l 351 803 l 258 677 q 149 767 206 719 q 23 870 90 814 l -116 718 l -170 763 l 48 1005 l 123 998 l 123 999 z "},"ï":{"ha":292,"x_min":-197,"x_max":376,"o":"m 180 106 l 224 80 l 138 -5 q 127 -6 134 -6 q 105 -3 117 -6 q 33 72 66 28 l 7 523 l 17 564 l 82 626 l 102 613 q 161 574 122 600 l 180 109 l 180 106 m 147 825 q 196 876 168 845 q 263 949 224 907 q 328 879 299 915 q 376 806 356 843 q 260 686 338 734 q 210 742 240 709 q 142 822 181 776 l 147 825 m -194 825 q -148 876 -176 845 q -83 949 -119 907 q -15 879 -45 915 q 35 806 15 843 q -75 686 2 739 q -128 742 -99 709 q -197 822 -158 776 l -194 825 z "},"ð":{"ha":793,"x_min":0,"x_max":726,"o":"m 255 307 q 328 142 255 209 q 495 76 399 76 q 624 254 624 76 q 561 441 624 345 q 418 587 505 526 q 255 309 258 541 l 255 307 m 119 781 q 49 822 80 804 q 0 849 18 840 q 49 911 23 883 q 100 962 75 939 q 157 928 129 945 q 214 892 186 909 l 267 955 l 267 958 q 269 960 267 960 l 273 960 q 294 949 281 956 q 322 935 307 942 q 347 925 336 926 l 277 848 q 463 706 380 776 q 604 570 545 637 q 694 441 664 503 q 726 321 726 379 q 623 94 726 195 q 388 -6 522 -6 q 197 86 282 -6 q 112 285 112 176 q 192 488 112 398 q 380 612 267 576 q 340 643 359 630 q 296 669 319 656 q 245 700 273 683 q 178 743 216 718 l 113 671 q 106 670 110 670 q 98 671 102 670 q 79 682 87 677 q 62 692 70 687 q 52 694 57 694 q 44 693 47 694 l 116 781 l 116 782 l 119 781 z "},"ñ":{"ha":655,"x_min":-25,"x_max":587,"o":"m 534 99 l 580 76 l 484 -16 q 398 52 429 16 l 380 486 q 347 513 380 497 q 285 527 311 527 q 215 511 256 527 q 175 486 175 496 l 168 -10 l 39 1 l 33 522 l 0 531 q 77 630 26 587 l 106 630 l 188 531 q 349 621 313 621 q 446 590 378 621 q 515 537 515 559 l 532 98 l 532 99 l 534 99 m 542 932 l 587 890 l 386 687 l 334 694 q 228 795 273 751 q 151 866 181 838 l 16 727 l -25 767 l 184 985 l 235 977 l 411 809 l 542 930 l 542 932 z "},"ò":{"ha":677,"x_min":0,"x_max":610,"o":"m 0 296 q 93 523 0 422 q 285 618 182 618 q 507 549 414 618 q 610 332 610 469 q 524 93 610 193 q 313 -5 439 -5 q 66 98 149 -5 q 1 296 1 178 l 0 296 m 115 376 q 192 168 115 260 q 389 68 272 68 q 501 241 501 68 q 408 444 501 361 q 197 523 318 523 q 115 376 115 523 m 60 939 q 62 941 61 940 l 186 1048 l 477 703 l 428 688 q 246 803 336 741 q 60 939 156 865 z "},"ó":{"ha":677,"x_min":0,"x_max":610,"o":"m 0 296 q 93 523 0 422 q 285 618 182 618 q 507 549 414 618 q 610 332 610 469 q 524 93 610 193 q 313 -5 439 -5 q 66 98 149 -5 q 1 296 1 178 l 0 296 m 416 1053 q 543 943 484 999 q 357 809 450 871 q 172 693 264 747 l 120 709 l 416 1053 m 115 376 q 192 168 115 260 q 389 68 272 68 q 501 241 501 68 q 408 444 501 361 q 197 523 318 523 q 115 376 115 523 z "},"ô":{"ha":677,"x_min":0,"x_max":610,"o":"m 0 296 q 93 523 0 422 q 285 618 182 618 q 507 549 414 618 q 610 332 610 469 q 524 93 610 193 q 313 -5 439 -5 q 66 98 149 -5 q 1 296 1 178 l 0 296 m 355 1008 l 583 814 l 487 688 q 384 772 442 724 q 254 880 326 819 l 115 728 l 60 772 l 278 1014 l 353 1008 l 355 1008 m 115 376 q 192 168 115 260 q 389 68 272 68 q 501 241 501 68 q 408 444 501 361 q 197 523 318 523 q 115 376 115 523 z "},"õ":{"ha":705,"x_min":0,"x_max":637,"o":"m 0 296 q 93 523 0 422 q 285 618 182 618 q 507 549 414 618 q 610 332 610 469 q 524 93 610 193 q 313 -5 439 -5 q 66 98 149 -5 q 1 296 1 178 l 0 296 m 593 935 l 637 895 l 435 690 l 384 697 q 277 798 323 754 q 201 870 232 842 l 67 730 l 24 769 l 233 987 l 285 979 l 460 813 l 591 935 l 593 935 m 115 376 q 192 168 115 260 q 389 68 272 68 q 501 241 501 68 q 408 444 501 361 q 197 523 318 523 q 115 376 115 523 z "},"ö":{"ha":677,"x_min":0,"x_max":610,"o":"m 0 296 q 93 523 0 422 q 285 618 182 618 q 507 549 414 618 q 610 332 610 469 q 524 93 610 193 q 313 -5 439 -5 q 66 98 149 -5 q 1 296 1 178 l 0 296 m 371 825 q 420 876 392 845 q 487 949 448 907 q 551 879 523 915 q 600 806 580 843 q 484 686 562 734 q 434 742 464 709 q 366 822 405 776 l 371 825 m 30 825 q 76 876 47 845 q 140 949 104 907 q 209 879 179 915 q 259 806 239 843 q 149 686 226 739 q 96 742 125 709 q 27 822 66 776 l 30 825 m 115 376 q 192 168 115 260 q 389 68 272 68 q 501 241 501 68 q 408 444 501 361 q 197 523 318 523 q 115 376 115 523 z "},"÷":{"ha":533,"x_min":0,"x_max":465,"o":"m 0 474 q 33 518 14 495 q 73 567 50 541 l 465 567 l 406 473 l 3 473 l 3 474 l 0 474 m 130 295 q 239 412 167 361 q 286 353 263 384 q 335 289 309 322 q 283 239 312 263 q 222 196 255 216 q 130 295 167 243 m 130 724 q 239 844 163 787 q 281 793 258 823 q 335 720 304 762 q 283 671 312 694 q 222 625 255 648 q 130 724 170 669 z "},"ø":{"ha":679,"x_min":0,"x_max":611,"o":"m 119 368 q 210 147 119 243 l 375 490 q 273 535 329 526 q 162 507 196 535 q 119 368 119 468 m 285 87 q 384 70 332 70 q 474 89 454 70 q 503 222 503 117 q 444 434 503 336 l 285 87 m 492 734 q 600 766 550 758 l 505 558 q 611 309 611 475 q 528 92 611 184 q 332 -6 446 -1 l 232 -6 l 186 -104 q 81 -133 136 -133 l 153 24 q 53 113 100 43 q 0 281 0 191 q 103 528 0 422 q 291 623 193 623 l 296 623 q 427 595 359 621 l 490 734 l 492 734 z "},"ù":{"ha":652,"x_min":0,"x_max":584,"o":"m 545 104 q 584 86 568 89 l 509 -6 q 496 -7 505 -7 q 388 80 458 -7 l 213 -3 q 147 10 176 -3 q 96 46 117 23 q 60 99 73 70 q 46 162 47 129 l 36 491 q 7 500 28 491 q 0 536 0 521 l 0 543 l 96 616 q 153 580 129 608 q 180 518 178 551 l 199 147 q 206 121 199 134 q 227 102 214 110 q 252 87 239 93 q 278 83 265 83 q 391 129 330 83 l 387 487 l 363 497 l 473 607 l 540 607 l 545 104 m 60 933 q 127 994 97 966 q 184 1041 159 1021 l 475 696 l 427 680 q 246 795 336 733 q 59 932 155 857 l 59 933 l 60 933 z "},"ú":{"ha":652,"x_min":0,"x_max":584,"o":"m 545 104 q 584 86 568 89 l 509 -6 q 496 -7 505 -7 q 388 80 458 -7 l 213 -3 q 147 10 176 -3 q 96 46 117 23 q 60 99 73 70 q 46 162 47 129 l 36 491 q 7 500 28 491 q 0 536 0 521 l 0 543 l 96 616 q 153 580 129 608 q 180 518 178 551 l 199 147 q 206 121 199 134 q 227 102 214 110 q 252 87 239 93 q 278 83 265 83 q 391 129 330 83 l 387 487 l 363 497 l 473 607 l 540 607 l 545 104 m 398 1049 q 523 939 464 995 q 338 806 431 867 q 152 690 245 743 l 102 705 l 395 1049 l 395 1050 l 398 1049 z "},"û":{"ha":652,"x_min":0,"x_max":584,"o":"m 545 104 q 584 86 568 89 l 509 -6 q 496 -7 505 -7 q 388 80 458 -7 l 213 -3 q 147 10 176 -3 q 96 46 117 23 q 60 99 73 70 q 46 162 47 129 l 36 491 q 7 500 28 491 q 0 536 0 521 l 0 543 l 96 616 q 153 580 129 608 q 180 518 178 551 l 199 147 q 206 121 199 134 q 227 102 214 110 q 252 87 239 93 q 278 83 265 83 q 391 129 330 83 l 387 487 l 363 497 l 473 607 l 540 607 l 545 104 m 316 1013 l 544 819 l 451 693 q 342 781 399 734 q 216 884 283 829 l 77 732 l 23 776 l 241 1018 l 316 1012 l 316 1013 z "},"ü":{"ha":652,"x_min":0,"x_max":584,"o":"m 545 104 q 584 86 568 89 l 509 -6 q 496 -7 505 -7 q 388 80 458 -7 l 213 -3 q 147 10 176 -3 q 96 46 117 23 q 60 99 73 70 q 46 162 47 129 l 36 491 q 7 500 28 491 q 0 536 0 521 l 0 543 l 96 616 q 153 580 129 608 q 180 518 178 551 l 199 147 q 206 121 199 134 q 227 102 214 110 q 252 87 239 93 q 278 83 265 83 q 391 129 330 83 l 387 487 l 363 497 l 473 607 l 540 607 l 545 104 m 349 826 q 398 878 370 846 q 465 951 427 909 q 530 880 501 916 q 578 806 558 844 q 464 687 540 736 q 414 743 444 710 q 345 823 384 777 l 349 826 m 7 826 q 53 878 24 846 q 117 951 81 909 q 186 880 156 916 q 236 806 215 844 q 125 687 202 740 q 72 743 102 710 q 4 823 43 777 l 4 825 l 7 826 z "},"ý":{"ha":666,"x_min":0,"x_max":598,"o":"m 447 1049 q 572 939 513 995 q 387 806 479 867 q 201 690 294 743 l 151 705 l 445 1049 l 445 1050 l 447 1049 m 388 494 q 448 621 401 559 q 562 572 521 621 q 598 471 598 528 q 587 417 598 441 l 357 -39 l 398 -218 l 323 -249 q 277 -75 282 -125 l 289 5 q 227 35 255 14 l 28 504 l 0 514 l 75 623 l 85 623 q 144 607 116 623 q 188 555 175 589 l 368 94 l 484 321 q 496 378 496 345 q 491 422 496 402 q 474 461 484 444 q 448 487 464 477 q 414 497 433 497 q 392 494 404 497 l 392 494 l 388 494 z "},"þ":{"ha":688,"x_min":0,"x_max":620,"o":"m 203 95 q 371 54 306 54 q 500 239 500 54 q 448 438 500 361 q 292 521 391 521 q 203 487 260 521 l 203 95 m 202 544 q 362 621 339 621 q 541 547 461 621 q 620 376 620 471 q 514 84 620 186 q 265 -6 420 -6 q 229 -5 248 -6 q 193 -1 212 -4 l 175 -189 q 64 -233 116 -225 l 57 37 q 0 56 23 56 l 0 81 l 63 130 l 53 633 l 20 718 q 49 736 36 730 q 73 746 62 741 q 94 756 84 751 q 116 770 104 762 l 174 773 l 200 544 l 202 544 z "},"ÿ":{"ha":666,"x_min":0,"x_max":598,"o":"m 353 876 q 415 941 387 909 q 469 1000 444 972 q 584 856 538 930 q 471 736 548 787 q 353 872 418 793 l 353 876 m 12 876 q 58 928 30 897 q 123 1000 86 959 q 242 857 197 932 q 132 737 210 793 q 77 793 109 760 q 9 873 46 827 l 9 875 l 12 876 m 388 494 q 448 621 401 559 q 562 572 521 621 q 598 471 598 528 q 587 417 598 441 l 357 -39 l 398 -218 l 323 -249 q 277 -75 282 -125 l 289 5 q 227 35 255 14 l 28 504 l 0 514 l 75 623 l 85 623 q 144 607 116 623 q 188 555 175 589 l 368 94 l 484 321 q 496 378 496 345 q 491 422 496 402 q 474 461 484 444 q 448 487 464 477 q 414 497 433 497 q 392 494 404 497 l 392 494 l 388 494 z "},"ı":{"ha":292,"x_min":7,"x_max":224,"o":"m 180 106 l 224 80 l 138 -5 q 127 -6 134 -6 q 105 -3 117 -6 q 33 72 66 28 l 7 523 l 17 564 l 82 626 l 102 613 q 161 574 122 600 l 180 109 l 180 106 z "},"ˆ":{"ha":791,"x_min":205,"x_max":723,"o":"m 495 1283 l 723 1090 l 630 964 q 397 1154 553 1025 l 258 1004 l 205 1048 l 422 1290 l 497 1283 l 495 1283 z "},"ˇ":{"ha":791,"x_min":205,"x_max":723,"o":"m 433 970 l 205 1164 l 298 1290 q 531 1101 375 1230 l 670 1250 l 723 1206 l 505 964 l 431 970 l 433 970 z "},"ˉ":{"ha":400,"x_min":0,"x_max":332,"o":"m 0 770 l 0 850 l 332 850 l 332 770 l 0 770 z "},"˘":{"ha":444,"x_min":0,"x_max":376,"o":"m 0 869 l 33 869 q 81 800 44 822 q 189 779 119 779 q 296 800 259 779 q 343 869 332 821 l 376 869 q 316 739 363 783 q 189 695 268 695 q 62 740 110 695 q 0 869 14 784 z "},"˙":{"ha":300,"x_min":0,"x_max":232,"o":"m 0 742 q 54 799 26 768 q 113 867 83 830 q 232 723 186 803 q 121 603 199 657 q 73 654 103 621 q 1 739 44 688 l 1 740 l 0 742 z "},"˚":{"ha":382,"x_min":0,"x_max":314,"o":"m 0 864 q 47 981 0 929 q 146 1029 94 1029 q 260 994 213 1029 q 314 883 314 953 q 270 759 314 810 q 161 709 226 709 q 33 762 76 709 q 1 864 1 803 l 0 864 m 94 891 q 118 833 94 859 q 181 806 144 806 q 217 854 217 806 q 187 909 217 886 q 120 932 159 932 q 94 891 94 932 z "},"˛":{"ha":305,"x_min":0,"x_max":237,"o":"m 174 0 q 103 -77 129 -40 q 78 -149 78 -114 q 95 -198 78 -180 q 142 -216 113 -216 q 187 -206 168 -216 q 219 -174 206 -196 l 237 -185 q 179 -247 214 -225 q 102 -269 144 -269 q 28 -247 57 -269 q 0 -188 0 -224 q 39 -87 0 -139 q 143 0 78 -35 l 174 0 z "},"˜":{"ha":859,"x_min":179,"x_max":791,"o":"m 745 1220 l 791 1179 l 590 974 l 540 982 q 463 1051 509 1010 q 355 1151 418 1094 l 222 1012 l 179 1050 l 387 1268 l 439 1260 l 613 1095 l 745 1217 l 745 1220 z "},"˝":{"ha":448,"x_min":0,"x_max":380,"o":"m 0 695 l 93 871 q 122 911 109 899 q 152 924 136 924 q 183 911 170 924 q 196 881 196 898 q 189 858 196 870 q 170 831 182 846 l 37 695 l 0 695 m 184 695 l 277 871 q 306 911 292 899 q 336 924 319 924 q 367 911 354 924 q 380 881 380 898 q 373 858 380 870 q 353 831 366 846 l 221 695 l 184 695 z "},"–":{"ha":533,"x_min":0,"x_max":465,"o":"m 0 474 q 33 518 14 495 q 73 567 50 541 l 465 567 l 406 473 l 3 473 l 3 474 l 0 474 z "},"—":{"ha":726,"x_min":0,"x_max":659,"o":"m 0 474 q 33 518 14 495 q 73 567 50 541 l 659 567 l 600 473 l 3 473 l 3 474 l 0 474 z "},"‘":{"ha":300,"x_min":0,"x_max":232,"o":"m 227 696 q 116 574 199 639 q 62 638 90 603 q 0 715 33 673 q 20 746 7 728 q 50 789 33 764 l 117 932 l 166 943 l 161 799 q 189 758 172 783 q 232 699 206 732 l 232 697 l 227 696 z "},"’":{"ha":300,"x_min":0,"x_max":232,"o":"m 5 822 q 116 943 33 879 q 170 880 142 915 q 232 803 199 845 q 212 772 224 790 q 182 729 200 754 l 115 587 l 66 574 l 71 719 q 43 760 60 734 q 0 819 26 786 l 0 821 l 5 822 z "},"‚":{"ha":300,"x_min":0,"x_max":232,"o":"m 5 123 q 116 245 33 180 q 170 182 142 216 q 232 104 199 146 q 212 73 224 92 q 182 31 200 56 l 115 -112 l 66 -124 l 71 20 q 43 62 60 36 q 0 121 26 87 l 0 122 l 5 123 z "},"“":{"ha":619,"x_min":0,"x_max":551,"o":"m 235 697 q 121 576 201 634 q 0 715 83 617 q 41 783 13 729 q 116 932 70 838 l 166 943 l 161 799 q 188 755 172 781 q 232 696 206 730 l 235 697 m 548 692 q 437 571 519 635 q 382 634 411 600 q 321 711 355 669 q 361 779 331 724 q 437 929 391 832 l 486 941 l 481 796 q 509 755 491 781 q 551 696 526 729 l 551 694 l 548 692 z "},"”":{"ha":619,"x_min":0,"x_max":551,"o":"m 317 817 q 431 938 351 880 q 551 799 469 897 q 510 730 538 785 q 435 583 482 677 l 385 571 l 391 715 q 363 759 380 733 q 319 819 345 783 l 317 817 m 4 822 q 115 943 33 879 q 169 880 140 915 q 231 803 197 845 q 191 736 220 790 q 115 585 161 682 l 66 574 l 71 718 q 43 759 60 733 q 0 819 26 785 l 0 819 l 4 822 z "},"„":{"ha":619,"x_min":0,"x_max":551,"o":"m 317 134 q 431 255 351 197 q 551 116 469 214 q 510 47 538 102 q 435 -100 482 -6 l 385 -112 l 391 33 q 363 76 380 50 q 319 136 345 100 l 317 134 m 4 139 q 115 260 33 196 q 169 197 140 232 q 231 120 197 162 q 191 53 220 107 q 115 -98 161 -1 l 66 -109 l 71 35 q 43 76 60 50 q 0 136 26 102 l 0 136 l 4 139 z "},"†":{"ha":630,"x_min":0,"x_max":562,"o":"m 267 659 q 233 773 262 721 q 196 857 196 838 q 219 907 196 888 q 281 926 242 926 q 342 908 317 926 q 366 862 366 890 q 330 774 366 842 q 295 659 301 719 q 409 693 357 664 q 492 730 474 730 q 543 707 524 730 q 562 645 562 684 q 545 584 562 608 q 498 560 527 560 q 410 595 477 560 q 295 632 355 625 q 366 454 300 519 q 294 -174 298 157 l 269 -174 q 196 454 265 157 q 267 632 262 519 q 153 597 205 625 q 70 560 87 560 q 19 583 38 560 q 0 645 0 606 q 18 706 0 682 q 64 730 35 730 q 152 694 84 730 q 267 659 207 664 z "},"‡":{"ha":630,"x_min":0,"x_max":562,"o":"m 295 120 q 410 157 355 127 q 498 192 477 192 q 545 168 527 192 q 562 107 562 144 q 543 45 562 68 q 492 22 524 22 q 409 58 474 22 q 295 94 357 88 q 330 -22 301 33 q 366 -110 366 -90 q 342 -156 366 -138 q 281 -174 317 -174 q 219 -155 242 -174 q 196 -104 196 -136 q 233 -21 196 -86 q 267 94 262 31 q 152 58 207 87 q 64 22 84 22 q 18 46 35 22 q 0 107 0 71 q 19 169 0 146 q 70 192 38 192 q 153 155 87 192 q 267 120 205 126 q 196 376 262 265 q 267 632 262 486 q 153 597 205 625 q 70 560 87 560 q 19 583 38 560 q 0 645 0 606 q 18 706 0 682 q 64 730 35 730 q 152 694 84 730 q 267 659 207 664 q 233 773 262 721 q 196 857 196 838 q 219 907 196 888 q 281 926 242 926 q 342 908 317 926 q 366 862 366 890 q 330 774 366 842 q 295 659 301 719 q 409 693 357 664 q 492 730 474 730 q 543 707 524 730 q 562 645 562 684 q 545 584 562 608 q 498 560 527 560 q 410 595 477 560 q 295 632 355 625 q 366 376 300 486 q 295 120 300 265 z "},"•":{"ha":449,"x_min":0,"x_max":381,"o":"m 0 463 q 56 597 0 542 q 191 652 112 652 q 326 597 270 652 q 381 463 381 541 q 325 328 381 384 q 190 271 269 271 q 55 327 111 271 q 0 463 0 383 z "},"…":{"ha":789,"x_min":1,"x_max":722,"o":"m 516 107 q 626 227 549 170 q 667 175 644 206 q 722 103 690 144 q 670 54 699 77 q 608 7 642 31 q 516 107 556 52 m 258 107 q 368 227 292 170 q 410 175 387 206 q 464 103 433 144 q 412 54 441 77 q 351 7 384 31 q 258 107 298 52 m 1 115 q 111 232 38 181 q 157 173 134 203 q 206 109 180 142 q 155 59 183 83 q 93 16 126 36 q 1 115 38 62 z "},"‹":{"ha":511,"x_min":0,"x_max":444,"o":"m 142 570 l 444 214 l 307 142 l 10 473 l 0 545 l 335 829 l 378 783 l 143 570 l 143 571 l 142 570 z "},"›":{"ha":505,"x_min":0,"x_max":437,"o":"m 427 479 l 427 479 l 437 407 q 285 278 368 349 q 104 123 202 209 l 66 170 q 161 258 104 206 q 296 382 218 311 q 173 530 248 442 q 0 737 98 618 l 134 809 l 427 479 z "},"⁄":{"ha":593,"x_min":0,"x_max":526,"o":"m 410 875 q 526 918 463 906 l 116 44 q 0 12 58 12 l 410 876 l 410 875 z "},"₣":{"ha":771,"x_min":0,"x_max":703,"o":"m 66 -62 l 64 896 q 200 897 117 897 q 398 896 285 897 q 593 888 515 890 q 703 880 670 885 l 638 790 q 288 846 452 846 l 252 846 l 252 848 q 220 845 237 846 l 219 598 l 647 598 l 578 498 l 218 514 l 198 -54 l 429 -54 l 371 -149 l 195 -149 l 193 -193 q 112 -265 121 -260 q 0 -299 62 -299 q 67 -203 0 -265 l 67 -149 l 1 -149 q 30 -109 12 -132 q 66 -62 45 -88 z "},"₤":{"ha":844,"x_min":1,"x_max":776,"o":"m 123 593 q 262 821 153 744 q 421 878 342 878 q 663 822 528 878 l 547 732 q 363 795 448 793 q 298 782 329 795 q 260 741 262 767 l 254 593 l 431 593 l 372 498 l 252 498 l 250 469 l 248 397 l 429 397 l 371 302 l 244 302 l 239 178 l 194 79 l 196 77 q 252 106 222 92 q 319 129 283 119 q 394 147 361 142 q 458 152 428 152 q 776 110 675 152 l 677 -7 l 667 -7 q 555 16 623 -7 q 352 44 475 44 q 123 -3 186 44 q 106 -5 113 -5 q 90 -3 98 -5 l 104 302 l 1 302 q 30 342 12 319 q 73 397 47 366 l 109 397 l 112 468 q 113 498 112 484 l 1 498 l 1 500 q 33 544 16 521 q 75 593 52 567 l 123 593 z "},"₧":{"ha":972,"x_min":0,"x_max":905,"o":"m 342 176 q 399 147 371 162 q 456 116 428 132 q 558 90 510 90 q 578 92 568 90 q 720 195 671 102 q 762 385 762 277 q 652 680 762 559 q 384 800 544 800 q 229 729 299 800 l 219 98 l 319 175 l 340 175 l 340 176 l 342 176 m 65 -64 q 62 767 62 157 l 0 800 q 111 911 41 858 q 237 800 193 870 l 237 802 q 508 892 358 892 q 810 753 696 892 q 905 524 905 640 q 789 159 905 300 q 461 7 669 7 q 222 76 361 7 l 217 -54 l 429 -54 l 371 -149 l 214 -149 l 213 -180 q 112 -265 121 -260 q 0 -299 62 -299 q 67 -203 0 -265 l 67 -176 q 66 -149 66 -166 l 1 -149 q 30 -109 12 -132 q 65 -64 45 -89 z "},"€":{"ha":778,"x_min":0,"x_max":710,"o":"m 132 593 l 475 593 l 418 498 l 133 498 q 150 397 137 444 l 474 397 l 416 302 l 189 302 q 246 228 213 260 q 511 126 347 130 l 537 126 q 621 130 585 126 q 696 149 667 136 l 572 -9 q 500 -10 534 -10 l 441 -10 q 87 159 206 -10 q 0 438 0 282 l 0 439 l 1 438 q 107 742 1 606 q 448 909 233 909 q 617 872 553 909 q 710 789 653 852 l 587 714 q 303 804 452 804 q 168 722 212 804 q 132 593 136 667 z "},"№":{"ha":994,"x_min":0,"x_max":926,"o":"m 121 846 l 120 845 q 236 896 192 896 q 367 848 310 896 q 427 724 427 797 q 395 587 427 644 q 334 505 387 570 q 368 494 359 494 q 373 496 369 494 q 383 498 378 496 q 395 501 389 500 q 407 503 402 503 q 416 502 413 503 l 383 460 q 347 453 364 456 q 317 450 330 450 q 274 458 293 450 l 274 481 q 353 661 353 554 q 302 795 353 740 q 192 847 252 847 q 119 820 182 847 l 112 449 l 36 449 l 33 823 l 0 837 l 7 859 l 47 897 l 62 897 l 121 846 m 460 683 q 529 830 460 764 q 681 896 597 896 q 842 840 767 896 q 926 680 926 777 q 845 515 926 587 q 684 447 769 447 q 525 514 589 447 q 460 683 460 583 m 532 722 q 587 561 532 617 q 759 499 644 499 q 863 641 863 499 q 791 798 863 743 q 626 846 728 846 q 553 808 577 846 q 532 722 532 777 l 532 723 l 532 722 z "},"™":{"ha":1112,"x_min":0,"x_max":1044,"o":"m 96 885 l 114 884 q 172 882 133 883 q 244 878 212 880 q 303 876 277 877 l 334 876 q 384 878 375 876 q 380 861 384 870 q 368 844 376 852 q 351 831 360 837 q 330 822 341 825 l 207 822 q 142 753 164 798 q 121 661 121 711 q 178 543 121 583 q 303 509 226 509 q 374 515 345 509 l 330 445 q 309 444 326 444 l 264 444 q 113 494 169 444 q 52 640 52 547 q 176 824 52 750 q 109 830 140 830 q 0 804 38 830 q 39 857 12 831 q 96 883 68 883 l 96 885 m 720 833 q 838 888 792 888 q 983 826 922 888 q 1044 675 1044 763 q 985 524 1044 606 q 947 477 966 498 q 908 441 927 456 l 894 441 q 966 646 966 548 q 922 770 966 711 q 809 839 876 833 l 805 839 q 774 831 789 839 q 757 823 765 827 q 741 816 749 819 l 725 445 l 655 445 l 652 783 q 591 821 642 798 q 524 844 542 844 q 454 795 483 844 q 429 705 429 753 q 460 586 429 648 q 531 494 490 525 l 472 445 q 389 535 419 478 q 361 650 361 589 l 361 652 q 419 806 362 736 q 556 882 479 882 q 649 865 609 882 q 684 849 665 857 q 720 833 702 842 z "},"∂":{"ha":1085,"x_min":0,"x_max":1017,"o":"m 136 0 q 0 136 0 0 l 0 882 q 136 1017 0 1017 l 882 1017 q 1017 882 1017 1017 l 1017 136 q 882 0 1017 0 l 136 0 m 882 17 q 1000 136 1000 17 l 1000 882 q 882 1000 1000 1000 l 136 1000 q 17 882 18 1000 l 17 136 q 136 17 18 17 l 882 17 z "},"∆":{"ha":1085,"x_min":0,"x_max":1017,"o":"m 136 0 q 0 136 0 0 l 0 882 q 136 1017 0 1017 l 882 1017 q 1017 882 1017 1017 l 1017 136 q 882 0 1017 0 l 136 0 m 882 17 q 1000 136 1000 17 l 1000 882 q 882 1000 1000 1000 l 136 1000 q 17 882 18 1000 l 17 136 q 136 17 18 17 l 882 17 z "},"∏":{"ha":1085,"x_min":0,"x_max":1017,"o":"m 136 0 q 0 136 0 0 l 0 882 q 136 1017 0 1017 l 882 1017 q 1017 882 1017 1017 l 1017 136 q 882 0 1017 0 l 136 0 m 882 17 q 1000 136 1000 17 l 1000 882 q 882 1000 1000 1000 l 136 1000 q 17 882 18 1000 l 17 136 q 136 17 18 17 l 882 17 z "},"∑":{"ha":1085,"x_min":0,"x_max":1017,"o":"m 136 0 q 0 136 0 0 l 0 882 q 136 1017 0 1017 l 882 1017 q 1017 882 1017 1017 l 1017 136 q 882 0 1017 0 l 136 0 m 882 17 q 1000 136 1000 17 l 1000 882 q 882 1000 1000 1000 l 136 1000 q 17 882 18 1000 l 17 136 q 136 17 18 17 l 882 17 z "},"−":{"ha":533,"x_min":0,"x_max":465,"o":"m 0 474 q 33 518 14 495 q 73 567 50 541 l 465 567 l 406 473 l 3 473 l 3 474 l 0 474 z "},"≈":{"ha":1085,"x_min":0,"x_max":1017,"o":"m 136 0 q 0 136 0 0 l 0 882 q 136 1017 0 1017 l 882 1017 q 1017 882 1017 1017 l 1017 136 q 882 0 1017 0 l 136 0 m 882 17 q 1000 136 1000 17 l 1000 882 q 882 1000 1000 1000 l 136 1000 q 17 882 18 1000 l 17 136 q 136 17 18 17 l 882 17 z "},"≤":{"ha":1085,"x_min":0,"x_max":1017,"o":"m 136 0 q 0 136 0 0 l 0 882 q 136 1017 0 1017 l 882 1017 q 1017 882 1017 1017 l 1017 136 q 882 0 1017 0 l 136 0 m 882 17 q 1000 136 1000 17 l 1000 882 q 882 1000 1000 1000 l 136 1000 q 17 882 18 1000 l 17 136 q 136 17 18 17 l 882 17 z "},"≥":{"ha":1085,"x_min":0,"x_max":1017,"o":"m 136 0 q 0 136 0 0 l 0 882 q 136 1017 0 1017 l 882 1017 q 1017 882 1017 1017 l 1017 136 q 882 0 1017 0 l 136 0 m 882 17 q 1000 136 1000 17 l 1000 882 q 882 1000 1000 1000 l 136 1000 q 17 882 18 1000 l 17 136 q 136 17 18 17 l 882 17 z "},"":{"ha":68,"x_min":0,"x_max":0,"o":""},"":{"ha":68,"x_min":0,"x_max":0,"o":""},"Œ":{"ha":1628,"x_min":0,"x_max":1560,"o":"m 142 548 q 252 224 142 338 q 597 102 368 102 q 806 385 806 102 q 661 699 806 589 q 331 795 534 795 q 184 720 233 795 q 143 548 143 656 l 143 549 l 142 548 m 846 218 q 769 134 814 174 q 447 -3 617 -3 q 129 132 258 -3 q 0 469 0 268 q 136 763 0 631 q 441 895 273 895 q 762 783 612 895 q 857 689 819 740 q 951 799 894 750 q 1261 909 1082 909 q 1560 806 1362 909 q 1438 719 1510 760 q 1356 760 1388 745 q 1308 781 1323 776 q 1094 809 1220 809 q 939 589 958 809 l 1396 589 l 1339 496 l 935 496 q 1348 127 935 127 l 1348 126 q 1541 157 1487 126 q 1550 156 1544 157 q 1559 155 1556 155 l 1432 -3 q 1261 -10 1352 -10 q 922 112 1045 -10 q 846 218 876 159 z "},"œ":{"ha":1096,"x_min":0,"x_max":1028,"o":"m 115 376 q 192 168 115 260 q 389 68 272 68 q 501 241 501 68 q 408 444 501 361 q 197 523 318 523 q 115 376 115 523 m 703 549 l 703 548 q 618 376 618 548 l 899 368 q 703 549 882 548 m 545 119 q 524 93 535 105 q 313 -5 439 -5 q 66 98 149 -5 q 1 296 1 178 l 0 296 q 93 523 0 422 q 285 618 182 618 q 507 549 414 618 q 559 496 537 525 q 574 518 566 507 q 773 627 653 627 q 948 570 871 627 q 1028 415 1028 508 q 1021 321 1028 368 l 618 326 q 892 99 629 99 q 995 121 956 99 q 895 0 961 43 q 853 -5 871 -3 q 825 -7 835 -7 q 595 70 696 -7 q 545 119 565 93 z "},"‰":{"ha":1067,"x_min":0,"x_max":999,"o":"m 91 683 l 92 682 q 210 448 92 448 q 252 513 252 448 q 212 680 252 613 q 137 739 177 739 q 91 683 91 739 m 0 591 q 45 759 0 688 q 168 833 92 833 q 292 775 239 833 q 351 602 351 710 q 304 417 351 486 q 174 347 256 347 q 43 428 90 347 q 3 592 3 496 l 0 591 m 481 336 l 482 336 q 600 101 482 101 q 642 167 642 101 q 602 334 642 267 q 528 393 568 393 q 481 336 481 393 m 739 336 l 740 336 q 857 101 740 101 q 899 167 899 101 q 860 334 899 267 q 785 393 825 393 q 739 336 739 393 m 696 72 q 694 71 695 71 q 564 0 646 0 q 433 81 480 0 q 393 245 393 149 l 391 245 q 435 412 391 342 q 558 487 483 487 q 682 429 629 487 q 694 414 689 421 q 816 487 741 487 q 940 429 886 487 q 999 255 999 363 q 952 71 999 140 q 821 0 904 0 q 696 72 742 0 m 519 830 q 635 872 572 861 l 226 -1 q 110 -33 168 -33 l 519 831 l 519 830 z "}}}
